**ABCDEFGHIJKLMNOPQRSTUVWXYZabcdefghijklmnopqrstuvwxyz**************************
**PARASOLID !"#$%&'()*+,-./:;<=>?@[\]^_`{|}~0123456789**************************
**PART1;
MC=AMD64;
MC_MODEL=Intel64 Family 6 Model 165 Stepping 2, GenuineIntel;
MC_ID=unknown;
OS=Windows_NT;
OS_RELEASE=unknown;
FRU=Parasolid Version 33.1, build 255,  1- 8-2022;
APPL=SOLIDWORKS 2022-2022076;
SITE=;
USER=unknown;
FORMAT=text;
GUISE=transmit;
KEY=FILEBrake_disk.xt.x_t;
DATE=Sun Jun  4 17:07:13 2023;
**PART2;
SCH=SCH_3301255_33103;
USFLD_SIZE=0;
**PART3;
**END_OF_HEADER*****************************************************************
T51 : TRANSMIT FILE created by modeller version 330125523 SCH_3301255_33103_1300
6230 0 10 21 CCCCI7 lattice222 0 CCCI4 mesh1006 0 I8 polyline1008 0 CCCCCCCCCCA1
6 mesh_offset_data206 0 Z1 5 2 3 0 0 0 0 0 0 0 0 1e3 1e-8 0 0 0 1 0 1 4 0 81 255
 1 2 5 5 1 0 0 0 0 0 70 11 CI9 list_type0 0 1 uI10 notransmit0 0 1 lCCCDCCDI12 f
inger_index0 0 1 dI12 finger_block1012 0 CZ3 0 4 T1 0 0 1 20 1 6 6 11 255 4 3 0
 1 7 8 1 9 0 9 0 12 35 CCCI7 lattice222 0 CCCI4 mesh1006 0 I8 polyline1008 0 CCC
CCCCDI5 owner1040 0 CCCCCCI13 boundary_mesh1006 0 I17 boundary_polyline1008 0 CC
CA16 index_map_offset0 0 1 dA9 index_map82 0 A17 node_id_index_map82 0 A20 schem
a_embedding_map82 0 A5 child12 0 A14 lowest_node_id0 0 1 dA16 mesh_offset_data20
6 0 Z7 3617 10 11 0 0 0 0 0 0 0 1e3 1e-8 4 12 0 1 0 1 1 13 14 15 0 0 0 16 17 0 0
 0 0 0 0 0 0 100 10 CCCCCCCCCA9 precision229 0 Z8 4 4 0 0 0 0 1 0 1 0 -1 0 0 .58
9999999999976 .0460001024979517 -1.5505 1 3 ?0 11 9 1 0 1 7 18 1 0 4 0 4 100 18
 2 9 0 0 0 0 1 0 1 0 -1 0 0 .56 .046 0 1 3 ?0 81 1 10 3617 5 7 0 0 0 0 19 70 11
 0 4 T7 0 0 3 20 1 20 20 13 255 13 31 0 7 0 21 0 0 22 0 51 255 14 30 0 23 24 0 0
 -.5895 .151 .005 0 0 -1 .09 -1 0 0 31 255 15 25 0 25 26 0 0 +.5895 .151 0 0 0 1
 1 0 0 .09 19 8 CCCCCCCA5 owner12 0 Z16 9 0 7 22 0 27 V0 16 255 17 5 0 ?28 0 25
 26 0 0 7 17 255 28 0 29 28 28 0 30 17 0 0 +16 25 20 0 ?31 17 0 15 0 0 7 31 26 7
 0 17 0 15 0 +.5895 .151 .005 0 0 1 1 0 0 .09 17 31 0 32 31 31 0 33 25 0 0 +15 2
55 32 28 0 31 23 0 17 33 0 34 33 33 0 31 25 0 0 -15 34 19 0 33 35 0 14 255 35 20
56 36 ?23 21 34 13 24 -0 0 23 21 27 81 1 36 3615 37 35 38 0 39 40 41 14 23 27 40
 ?0 35 42 13 14 -0 0 0 35 27 14 21 2062 39 ?35 0 29 13 43 +0 0 35 0 27 50 255 24
 24 0 35 43 14 0 +.5895 .151 0 0 0 1 1 0 0 13 27 10 0 0 0 0 0 0 16 21 50 43 3 0
 21 0 24 0 +.5895 .151 .005 0 0 1 1 0 0 81 1 39 3614 37 21 44 0 0 36 45 15 29 4
 0 28 21 0 80 255 1 37 0 46 8001 0 0 0 0 3 5 0 0 0 FFFFTFTFFFFFFF2 81 1 44 3611
 47 21 0 39 48 0 49 83 255 3 45 .792156862745098 .819607843137255 .9333333333333
33 80 1 47 50 51 9000 1 1 1 1 1 1 1 1 0 FFFFTFTFFFFFFF1 81 1 48 3609 47 23 0 40
 38 44 52 82 255 1 49 33816687 81 1 40 3616 37 23 48 0 36 0 53 81 1 38 3606 47 3
5 0 36 0 48 54 82 1 52 1171849322 82 1 54 33947759 83 3 53 .792156862745098 .819
607843137255 .933333333333333 79 255 14 51 SWEntUnchanged79 15 46 SDL/TYSA_COLOU
R15 42 26 0 30 23 32 17 30 0 42 30 30 0 28 17 0 0 -83 3 41 .792156862745098 .819
607843137255 .933333333333333 19 22 32 0 7 0 16 13 S0 74 4 CI16 index_map_offset
0 0 1 dCCZ20 20 3 0 0 44 40 10 0 0 0 0 0 0 0 0 0 0 0 0 0 0 0 0 0 80 1 5 55 56 80
17 0 0 0 0 0 0 0 0 0 TTTTTTTTTTTTTF3 84 255 10 19 Brake_disk79 13 56 SDL/TYSA_NA
ME74 20 6 1 0 0 2 0 0 0 0 0 0 0 0 0 0 0 0 0 0 0 0 0 0 0 1 0 
