**ABCDEFGHIJKLMNOPQRSTUVWXYZabcdefghijklmnopqrstuvwxyz**************************
**PARASOLID !"#$%&'()*+,-./:;<=>?@[\]^_`{|}~0123456789**************************
**PART1;
MC=AMD64;
MC_MODEL=Intel64 Family 6 Model 165 Stepping 2, GenuineIntel;
MC_ID=unknown;
OS=Windows_NT;
OS_RELEASE=unknown;
FRU=Parasolid Version 33.1, build 255,  1- 8-2022;
APPL=SOLIDWORKS 2022-2022076;
SITE=;
USER=unknown;
FORMAT=text;
GUISE=transmit;
KEY=FILEFront_sus.x_t;
DATE=Sun Jun  4 00:15:20 2023;
**PART2;
SCH=SCH_3301255_33103;
USFLD_SIZE=0;
**PART3;
**END_OF_HEADER*****************************************************************
T51 : TRANSMIT FILE created by modeller version 330125523 SCH_3301255_33103_1300
6230 0 12 35 CCCI7 lattice222 0 CCCI4 mesh1006 0 I8 polyline1008 0 CCCCCCCDI5 ow
ner1040 0 CCCCCCI13 boundary_mesh1006 0 I17 boundary_polyline1008 0 CCCA16 index
_map_offset0 0 1 dA9 index_map82 0 A17 node_id_index_map82 0 A20 schema_embeddin
g_map82 0 A5 child12 0 A14 lowest_node_id0 0 1 dA16 mesh_offset_data206 0 Z1 198
4 2 3 0 0 0 0 0 0 0 1e3 1e-8 0 4 0 1 0 1 1 5 6 7 8 0 0 9 10 11 0 0 0 0 0 0 0 81
 255 2 2 1954 12 1 13 0 0 0 0 14 70 11 CI9 list_type0 0 1 uI10 notransmit0 0 1 l
CCCDCCDI12 finger_index0 0 1 dI12 finger_block1012 0 CZ3 0 4 T1 0 0 9 20 1 15 15
 13 255 5 108 0 1 0 16 0 0 17 0 51 255 6 1190 0 18 19 0 0 +.535 .271 -.57 -1 0 0
 .01 0 0 1 30 255 7 1405 0 10 20 0 0 +.48 .121 0 0 0 -1 29 255 8 1404 0 11 21 0
 .48 .121 -.596858117852031 19 8 CCCCCCCA5 owner12 0 Z9 109 0 1 17 0 22 V0 16 25
5 10 1403 0 ?23 0 24 7 0 0 1 18 255 11 1402 0 23 0 25 8 ?1 17 255 23 0 26 27 28
 11 29 10 0 30 +18 25 1399 0 28 11 31 21 ?1 17 28 0 26 23 32 25 33 34 0 29 -18 3
1 1387 0 35 25 36 37 ?1 29 21 1401 0 25 37 8 .48 .121 -.583687334384309 29 37 13
89 0 31 38 21 .465 .13248716105032 -.592739868498816 29 38 1383 0 36 39 37 .465
 .121 -.581513610561944 18 36 1381 0 40 31 41 38 ?1 29 39 827 0 41 42 38 .535 .1
31 -.62 18 41 825 0 43 36 44 39 ?1 29 42 824 0 44 45 39 .535 .144429101812183 -.
62 18 44 822 0 46 41 47 42 ?1 29 45 821 0 47 48 42 .535 .152635619878666 -.55571
4285714286 18 47 819 0 49 44 50 45 ?1 29 48 818 0 50 51 45 .535 .251113836676461
 -.555714285714286 18 50 816 0 52 47 53 48 ?1 29 51 815 0 53 54 48 .535 .271 -.5
6 18 53 813 0 55 50 56 51 ?1 29 54 812 0 56 57 51 .535 .259320354742944 -.56 18
 56 810 0 58 53 59 54 ?1 29 57 809 0 59 60 54 .535 .281 -.61 18 59 807 0 61 56 6
2 57 ?1 29 60 806 0 62 63 57 .535 .281 -.57 18 62 804 0 64 59 65 60 ?1 29 63 803
 0 65 66 60 .535 .271 -.62 18 65 801 0 67 62 68 63 ?1 29 66 800 0 68 69 63 .535
 .259320354742944 -.62 18 68 798 0 70 65 71 66 ?1 29 69 797 0 71 72 66 .535 .251
113836676461 -.624285714285714 18 71 795 0 73 68 74 69 ?1 29 72 794 0 74 75 69 .
535 .152635619878666 -.624285714285714 18 74 792 0 76 71 77 72 ?1 29 75 781 0 77
 78 72 .535 .131 -.56 18 77 779 0 79 74 80 75 ?1 29 78 778 0 80 81 75 .535 .1444
29101812183 -.56 18 80 776 0 82 77 83 78 ?1 29 81 747 0 83 84 78 .465 .271 -.56
 18 83 745 0 85 80 86 81 ?1 29 84 744 0 86 87 81 .465 .259320354742944 -.56 18 8
6 742 0 88 83 89 84 ?1 29 87 741 0 89 90 84 .465 .152635619878666 -.555714285714
286 18 89 739 0 91 86 92 87 ?1 29 90 738 0 92 93 87 .465 .251113836676461 -.5557
14285714286 18 92 736 0 94 89 95 90 ?1 29 93 735 0 95 96 90 .465 .131 -.56 18 95
 733 0 97 92 98 93 ?1 29 96 732 0 98 99 93 .465 .144429101812183 -.56 18 98 730
 0 100 95 101 96 ?1 29 99 729 0 101 102 96 .465 .131 -.62 18 101 727 0 103 98 10
4 99 ?1 29 102 726 0 104 105 99 .465 .144429101812183 -.62 18 104 724 0 106 101
 107 102 ?1 29 105 723 0 107 108 102 .465 .251113836676461 -.624285714285714 18
 107 721 0 109 104 110 105 ?1 29 108 720 0 110 111 105 .465 .152635619878666 -.6
24285714285714 18 110 718 0 112 107 113 108 ?1 29 111 717 0 113 114 108 .465 .27
1 -.62 18 113 715 0 115 110 116 111 ?1 29 114 714 0 116 117 111 .465 .2593203547
42944 -.62 18 116 712 0 118 113 119 114 ?1 29 117 711 0 119 120 114 .465 .281 -.
61 18 119 709 0 121 116 122 117 ?1 29 120 708 0 122 123 117 .465 .281 -.57 18 12
2 706 0 124 119 125 120 ?1 29 123 695 0 125 126 120 .535 .121 -.61 18 125 693 0
 127 122 128 123 ?1 29 126 692 0 128 129 123 .535 .121 -.57 18 128 690 0 130 125
 131 126 ?1 29 129 689 0 131 132 126 .465 .121 -.61 18 131 687 0 133 128 134 129
 ?1 29 132 686 0 134 135 129 .465 .121 -.57 18 134 684 0 136 131 137 132 ?1 29 1
35 431 0 137 138 132 .465 .281 -.579161491685435 18 137 429 0 139 134 140 135 ?1
 29 138 422 0 140 141 135 .465 .281 -.602156160948246 18 140 420 0 142 137 143 1
38 ?1 29 141 419 0 143 144 138 .465 .270063206504348 -.590561479475967 18 143 41
7 0 145 140 146 141 ?1 29 144 406 0 146 147 141 .473763170810238 .281 -.59927627
3157491 18 146 404 0 148 143 149 144 ?1 29 147 403 0 149 150 144 .47851814798228
7 .281 -.583045655560998 18 149 401 0 151 146 152 147 ?1 29 150 394 0 152 153 14
7 .48 .281 -.597710972204488 18 152 392 0 154 149 155 150 ?1 29 153 200 0 155 15
6 150 .463606851072773 .280453087507761 -.593477124859406 18 155 173 0 157 152 1
58 153 ?1 29 156 621 0 158 159 153 .48 .281 -.58332087492927 18 158 514 0 160 15
5 161 156 ?1 29 159 1483 0 161 162 156 .465 .121 -.603506205639318 18 161 1430 0
 163 158 164 159 ?1 29 162 1486 0 164 0 159 .48 .118128650573223 -.5885709229579
52 18 164 1427 0 165 161 0 162 ?1 17 165 0 166 167 29 164 168 169 0 170 +15 255
 166 1436 0 29 171 0 17 167 0 166 29 165 11 172 173 0 0 +17 29 0 166 165 167 25
 23 10 0 168 -17 168 0 174 33 170 25 165 169 0 0 -16 169 1413 0 ?165 175 0 176 0
 0 1 17 170 0 174 168 177 164 178 179 0 172 +15 174 1441 0 168 180 0 17 177 0 17
4 170 33 31 40 24 0 178 +17 178 0 181 182 172 31 170 179 0 0 -16 179 1418 0 ?170
 173 183 184 0 0 1 17 172 0 181 178 30 164 167 173 0 0 -15 181 1446 0 182 185 0
 17 30 0 181 172 182 11 27 186 0 167 +16 173 1414 0 ?167 186 179 187 0 0 1 16 18
6 1420 0 ?30 34 173 188 0 0 1 32 255 187 1476 0 173 189 188 0 +.48 .126 -.59 1 0
 0 0 .171996015790114 .985097645186672 .00861915345123766 .008 31 255 189 1477 0
 175 184 187 0 +.19 .136 -.539058512788591 .984352290716476 -.0339431824384993 -
.172911619410532 -.173011314730961 0 -.984919836826868 .008 32 188 1475 0 186 18
7 190 0 -.4075 .121 -.618637222806044 0 1 0 .930072822847603 0 .367375209017009
 .124977725042946 .008 32 190 1474 0 34 188 191 0 -.625 .121 -.615470743605705 0
 1 0 -.984919836826868 0 .173011314730962 .235687976944856 .008 16 34 1416 0 ?33
 192 186 190 0 0 1 31 191 617 0 193 190 194 0 +.535 .2018747282775635 -.59 1 0 0
 0 0 -1 .06 16 193 817 0 ?195 196 197 191 198 198 1 30 194 616 0 199 191 200 0 +
.535 .046 -.62 0 1 0 16 199 799 0 ?201 202 198 194 0 0 1 30 200 615 0 202 194 20
3 0 +.535 .281 0 0 0 -1 16 202 805 0 ?204 197 199 200 0 0 1 30 203 614 0 197 200
 205 0 +.535 .046 -.56 0 1 0 16 197 811 0 ?206 193 202 203 0 0 1 30 205 613 0 19
6 203 207 0 +.535 .046 -.56 0 -1 0 16 196 777 0 ?208 209 193 205 0 0 1 30 207 61
2 0 209 205 210 0 +.535 .121 0 0 0 -1 16 209 691 0 ?211 212 196 207 0 0 1 30 210
 611 0 212 207 213 0 +.535 .046 -.62 0 -1 0 16 212 823 0 ?214 215 209 210 0 0 1
 31 213 610 0 216 210 217 0 +.465 .2018747282775635 -.59 1 0 0 0 0 -1 .06 16 216
 737 0 ?218 219 220 213 192 192 1 30 217 609 0 221 213 222 0 +.465 .046 -.62 0 1
 0 16 221 713 0 ?223 224 192 217 0 0 1 30 222 608 0 225 217 226 0 +.465 .281 0 0
 0 -1 16 225 707 0 ?139 220 224 222 224 224 1 30 226 607 0 220 222 227 0 +.465 .
046 -.56 0 1 0 16 220 743 0 ?228 216 225 226 0 0 1 30 227 606 0 219 226 229 0 +.
465 .046 -.56 0 -1 0 16 219 731 0 ?230 231 216 227 0 0 1 30 229 605 0 232 227 23
3 0 +.465 .121 0 0 0 -1 16 232 685 0 ?32 234 231 229 231 231 1 30 233 604 0 234
 229 235 0 +.465 .046 -.62 0 -1 0 16 234 725 0 ?236 198 232 233 0 0 1 32 235 595
 0 215 233 237 0 -.474629629629629 .281 -.591111111111111 0 1 0 -.97926041950710
3 0 -.2026056040359525 .01187405327971186 .008 16 215 447 0 ?238 239 212 235 239
 239 1 32 237 594 0 240 235 241 0 +.51625 .281 -.57 0 1 0 .875577684026794 0 .48
3077342911335 .0667233092704491 .008 16 240 457 0 ?142 242 239 237 0 0 1 32 241
 593 0 242 237 243 0 +.4075 .281 -.5725 0 1 0 -.972082208573287 0 .2346405331038
965 .1195993311018086 .008 16 242 456 0 ?151 244 240 241 0 0 1 32 243 592 0 244
 241 245 0 +.465 .277034482758621 -.586379310344828 1 0 0 0 .274721127897378 .96
1523947640823 .0082482297311592 .008 16 244 496 0 ?246 247 242 243 0 0 1 31 245
 198 0 247 243 248 0 +.19 .546 -.65 -.723644436333627 .673737923483032 -.1497195
38551785 -.681418527918843 -.73189397443135 0 .008 16 247 165 0 ?249 250 244 245
 0 0 1 32 248 197 0 250 245 251 0 +.48 .276 -.59 -.324409978096139 -.79942742210
0928 .505642129281894 -.915263402952188 .4002656129616475 .0456107695266877 .021
0775029286955 .008 16 250 402 0 ?157 252 247 248 0 0 1 31 251 20 0 253 248 254 0
 +.19 .236 -.75 -.869261441528762 -.1198981298660354 -.479592519464144 -.4779608
79872597 .451586908048764 .753407367756892 .008 16 253 6 0 ?255 256 252 251 0 0
 1 32 254 34 0 256 251 257 0 +.48 .276 -.59 -.135168588119068 .2508642026226905
 .958538786188842 .990805622413367 .02855681965262575 .1322449494135336 .0214886
6264369825 .008 16 256 139 0 ?258 259 253 254 0 0 1 31 257 75 0 252 254 260 0 +.
19 .296 -.52 .969905090031444 -.0668900062090645 -.234115021731728 -.23464053310
3897 0 -.972082208573287 .008 16 252 68 0 ?261 253 250 257 0 0 1 32 260 148 0 25
9 257 262 0 -.48 .276 -.59 .167047494013726 .91043565751986 .3784204649065835 .8
84931142325889 -.307683013819203 .3496112646196185 .01835472375384975 .008 16 25
9 146 0 ?263 264 256 260 0 0 1 32 262 226 0 264 260 265 0 -.48 .276 -.59 1 0 0 0
 .976187060183953 -.2169304578186565 .01105515305352482 .008 16 264 390 0 ?266 2
67 259 262 0 0 1 30 265 397 0 267 262 268 0 +.48 .281 -.619094765483027 0 0 1 16
 267 395 0 ?269 270 264 265 0 0 1 32 268 423 0 270 265 271 0 +.465 .273931034482
7585 -.598275862068966 1 0 0 0 .242535625036333 .970142500145332 .00920321507178
608 .008 16 270 421 0 ?272 273 267 268 0 0 1 30 271 698 0 273 268 274 0 -.535 .1
21 -.61 -1 0 0 16 273 696 0 ?127 275 270 271 0 0 1 30 274 703 0 275 271 276 0 +.
535 .121 -.57 -1 0 0 16 275 701 0 ?277 278 273 274 0 0 1 31 276 750 0 278 274 27
9 0 -.465 .271 -.57 1 0 0 0 0 -1 .01 16 278 748 0 ?124 280 275 276 0 0 1 31 279
 757 0 280 276 281 0 -.465 .271 -.61 1 0 0 0 0 -1 .01 16 280 755 0 ?115 282 278
 279 0 0 1 31 281 764 0 282 279 283 0 -.465 .131 -.61 1 0 0 0 0 -1 .01 16 282 76
2 0 ?284 285 280 281 0 0 1 31 283 771 0 285 281 286 0 -.465 .131 -.57 1 0 0 0 0
 -1 .01 16 285 769 0 ?97 287 282 283 0 0 1 30 286 784 0 287 283 288 0 -.465 .144
429101812183 -.56 1 0 0 16 287 782 0 ?289 290 285 286 0 0 1 30 288 789 0 290 286
 291 0 -.535 .131 -.56 -1 0 0 16 290 787 0 ?79 292 287 288 0 0 1 31 291 830 0 29
2 288 293 0 +.535 .271 -.57 1 0 0 0 0 -1 .01 16 292 828 0 ?55 294 290 291 0 0 1
 31 293 837 0 294 291 295 0 +.535 .271 -.61 1 0 0 0 0 -1 .01 16 294 835 0 ?61 29
6 292 293 0 0 1 31 295 844 0 296 293 297 0 +.535 .131 -.61 1 0 0 0 0 -1 .01 16 2
96 842 0 ?43 298 294 295 0 0 1 31 297 851 0 298 295 299 0 +.535 .131 -.57 1 0 0
 0 0 -1 .01 16 298 849 0 ?130 300 296 297 0 0 1 30 299 858 0 300 297 301 0 -.535
 .144429101812183 -.62 -1 0 0 16 300 856 0 ?46 302 298 299 0 0 1 30 301 863 0 30
2 299 303 0 +.465 .131 -.62 -1 0 0 16 302 861 0 ?304 305 300 301 0 0 1 30 303 86
8 0 305 301 306 0 -.535 .251113836676461 -.624285714285714 -1 0 0 16 305 866 0 ?
73 307 302 303 0 0 1 30 306 873 0 307 303 308 0 +.535 .152635619878666 -.6242857
14285714 -1 0 0 16 307 871 0 ?309 310 305 306 0 0 1 30 308 878 0 310 306 311 0 +
.535 .251113836676461 -.555714285714286 -1 0 0 16 310 876 0 ?312 313 307 308 0 0
 1 30 311 883 0 313 308 314 0 -.535 .152635619878666 -.555714285714286 -1 0 0 16
 313 881 0 ?49 315 310 311 0 0 1 30 314 888 0 315 311 316 0 -.535 .271 -.62 -1 0
 0 16 315 886 0 ?67 317 313 314 0 0 1 30 316 893 0 317 314 318 0 -.465 .25932035
4742944 -.62 1 0 0 16 317 891 0 ?319 320 315 316 0 0 1 30 318 898 0 320 316 321
 0 +.535 .271 -.56 -1 0 0 16 320 896 0 ?322 323 317 318 0 0 1 30 321 903 0 323 3
18 324 0 -.535 .259320354742944 -.56 -1 0 0 16 323 901 0 ?58 325 320 321 0 0 1 3
0 324 908 0 325 321 326 0 -.535 .281 -.57 -1 0 0 16 325 906 0 ?64 327 323 324 0
 0 1 30 326 913 0 327 324 328 0 +.465 .281 -.61 -1 0 0 16 327 911 0 ?329 330 325
 326 0 0 1 31 328 964 0 330 326 331 0 +.465 .144429101812183 -.63 1 0 0 0 0 -1 .
01 16 330 916 0 ?106 332 327 328 0 0 1 31 331 965 0 332 328 333 0 -.535 .1444291
01812183 -.63 1 0 0 0 0 -1 .01 16 332 922 0 ?76 334 330 331 0 0 1 31 333 966 0 3
34 331 335 0 +.465 .144429101812183 -.55 1 0 0 0 0 -1 .01 16 334 928 0 ?91 336 3
32 333 0 0 1 31 335 967 0 336 333 337 0 -.535 .144429101812183 -.55 1 0 0 0 0 -1
 .01 16 336 934 0 ?82 338 334 335 0 0 1 31 337 968 0 338 335 339 0 +.465 .259320
354742944 -.63 1 0 0 0 0 -1 .01 16 338 940 0 ?109 340 336 337 0 0 1 31 339 969 0
 340 337 341 0 -.535 .259320354742944 -.63 1 0 0 0 0 -1 .01 16 340 946 0 ?70 342
 338 339 0 0 1 31 341 970 0 342 339 343 0 +.465 .259320354742944 -.55 1 0 0 0 0
 -1 .01 16 342 952 0 ?88 344 340 341 0 0 1 31 343 971 0 344 341 345 0 -.535 .259
320354742944 -.55 1 0 0 0 0 -1 .01 16 344 958 0 ?52 346 342 343 0 0 1 32 345 139
0 0 346 343 20 0 -.465 .1249655172413792 -.595924942649526 1 0 0 0 .171996015790
114 .985097645186672 .00861915345123766 .008 16 346 1388 0 ?182 24 344 345 0 0 1
 32 20 1393 0 24 345 7 0 -.465 .1265172413793102 -.587365095489065 1 0 0 0 .1926
272770460755 .981271997021119 .00812717161878814 .008 16 24 1391 0 ?177 10 346 2
0 0 0 1 17 182 0 181 30 178 161 35 346 0 0 +17 35 0 347 40 163 31 182 346 0 177
 -15 347 1392 0 40 348 0 17 40 0 347 349 35 36 177 24 0 32 -17 163 0 347 35 284
 161 133 231 0 27 -17 284 0 347 163 236 131 103 282 0 350 +17 133 0 26 127 27 13
1 163 231 0 284 +16 231 1385 0 ?133 232 219 229 232 232 1 17 27 0 26 133 23 161
 30 186 0 182 -15 26 1408 0 28 16 0 14 255 16 1409 351 ?352 0 26 5 353 -0 0 352
 0 22 81 1 351 1955 354 16 355 0 0 356 357 14 352 238 356 ?358 16 359 5 360 -0 0
 358 16 22 50 255 353 588 0 16 361 362 0 +.535 .121 0 0 1 0 0 0 1 13 22 56 0 0 0
 0 0 0 9 16 50 361 589 0 363 364 353 0 +.535 .046 -.62 0 0 -1 -1 0 0 50 362 587
 0 365 353 366 0 +.535 .046 -.56 0 0 -1 -1 0 0 14 365 559 367 ?363 368 369 5 362
 -0 0 363 368 22 51 366 586 0 368 362 370 0 -.535 .2018747282775635 -.59 -1 0 0
 .06 0 0 1 14 368 555 371 ?365 372 373 5 366 -374 374 365 372 22 50 370 585 0 37
2 366 375 0 +.535 .046 -.56 0 0 1 1 0 0 14 372 551 376 ?368 377 378 5 370 +0 0 3
68 377 22 50 375 584 0 379 370 380 0 +.535 .281 0 0 1 0 0 0 1 14 379 535 381 ?37
4 382 383 5 375 +0 0 374 382 22 50 380 583 0 377 375 384 0 +.535 .046 -.62 0 0 1
 1 0 0 14 377 543 385 ?372 374 386 5 380 -0 0 372 374 22 50 384 319 0 382 380 38
7 0 +.48 .346 -.619094765483027 1 0 0 0 0 -1 14 382 283 388 ?379 389 390 5 384 +
0 0 379 389 22 51 387 195 0 391 384 392 0 +.48 .276 -.59 -.723644436333627 .6737
37923483032 -.149719538551785 .008 -.681418527918843 -.73189397443135 0 14 391 2
27 393 ?394 358 395 5 387 +0 0 396 358 22 50 392 194 0 389 387 397 0 +.19 .546 -
.65 -.723644436333627 .673737923483032 -.149719538551785 -.681418527918843 -.731
89397443135 0 14 389 185 398 ?382 396 399 5 392 +0 0 382 394 22 51 397 19 0 358
 392 360 0 -.19 .236 -.75 .869261441528762 .119898129866036 .479592519464145 .00
8 .483077342911335 0 -.875577684026794 14 358 234 400 ?391 352 401 5 397 -0 0 39
1 352 22 51 360 73 0 352 397 402 0 -.511116094164575 .273854062471409 -.59751078
135007 -.969905090031444 .0668900062090649 .2341150217317275 .008 .2346405331038
965 0 .972082208573287 50 402 91 0 396 360 403 0 +.19 .236 -.75 -.86926144152876
2 -.1198981298660354 -.479592519464144 -.477960879872597 .451586908048764 .75340
7367756892 14 396 85 404 ?389 394 405 5 402 +0 0 394 391 22 50 403 104 0 394 402
 406 0 +.19 .296 -.52 .969905090031444 -.0668900062090645 -.234115021731728 -.23
4640533103897 0 -.972082208573287 14 394 98 407 ?396 391 408 5 403 -0 0 389 396
 22 51 406 1043 0 409 403 410 0 +.535 .131 -.57 -1 0 0 .01 0 0 1 14 409 1031 411
 ?412 348 413 5 406 +0 0 412 348 22 51 410 1064 0 412 406 414 0 +.535 .131 -.61
 1 0 0 .01 0 0 -1 14 412 1052 415 ?416 409 417 5 410 +0 0 416 409 22 51 414 1085
 0 416 410 418 0 +.535 .144429101812183 -.63 -1 0 0 .01 0 0 1 14 416 1073 419 ?4
20 412 421 5 414 -0 0 420 412 22 51 418 1106 0 420 414 422 0 +.535 .144429101812
183 -.55 -1 0 0 .01 0 0 1 14 420 1094 423 ?424 416 425 5 418 -0 0 424 416 22 51
 422 1127 0 424 418 426 0 +.535 .259320354742944 -.63 -1 0 0 .01 0 0 1 14 424 11
15 427 ?428 420 429 5 422 -0 0 428 420 22 51 426 1148 0 428 422 19 0 +.535 .2593
20354742944 -.55 -1 0 0 .01 0 0 1 14 428 1136 430 ?431 424 432 5 426 -0 0 431 42
4 22 51 19 1169 0 431 426 6 0 +.535 .271 -.61 1 0 0 .01 0 0 -1 14 431 1157 433 ?
18 428 434 5 19 +0 0 18 428 22 81 1 433 1974 354 431 435 0 430 436 437 14 18 117
8 436 ?171 431 438 5 6 +0 0 171 431 22 15 434 1158 0 439 431 0 17 439 0 434 440
 441 65 61 294 0 0 -17 440 0 434 121 439 113 67 315 0 0 -17 441 0 434 439 121 59
 329 327 0 0 -17 61 0 442 443 201 59 439 294 0 204 +15 442 575 0 208 444 0 17 44
3 0 442 55 61 62 204 202 0 445 -17 201 0 442 61 70 65 446 199 0 439 +17 204 0 38
3 329 64 59 443 202 0 441 +15 383 538 0 204 379 0 17 329 0 383 447 204 119 441 3
27 0 448 +17 64 0 383 204 449 62 450 325 0 443 +17 449 0 383 64 451 122 139 225
 0 450 -17 450 0 438 85 445 122 64 325 0 0 -15 438 1179 0 445 18 0 17 85 0 438 4
52 450 83 124 278 0 322 -17 445 0 438 450 452 62 55 292 0 0 -17 452 0 438 445 85
 53 322 320 0 0 -17 55 0 442 453 443 53 445 292 0 206 +17 453 0 442 52 55 56 206
 197 0 454 -17 206 0 378 322 58 53 453 197 0 452 +15 378 554 0 455 372 0 17 322
 0 378 455 206 83 452 320 0 228 +17 58 0 378 206 455 56 456 323 0 453 +17 455 0
 378 58 322 86 228 220 0 456 -17 456 0 432 94 454 86 58 323 0 0 -15 432 1137 0 4
54 428 0 17 94 0 432 457 456 92 88 342 0 312 -17 454 0 432 456 457 56 52 344 0 0
 -17 457 0 432 454 94 50 312 310 0 0 -17 52 0 442 195 453 50 454 344 0 458 +17 1
95 0 442 82 52 47 458 193 0 459 +17 458 0 373 312 49 50 195 193 0 457 -15 373 55
8 0 218 368 0 17 312 0 373 218 458 92 457 310 0 460 +17 49 0 373 458 218 47 461
 313 0 195 +17 218 0 373 49 312 89 460 216 0 461 +17 461 0 425 100 459 89 49 313
 0 0 -15 425 1095 0 459 420 0 17 100 0 425 462 461 98 91 334 0 289 -17 459 0 425
 461 462 47 82 336 0 0 -17 462 0 425 459 100 80 289 287 0 0 -17 82 0 442 208 195
 80 459 336 0 463 +17 208 0 442 130 82 77 463 196 0 464 +17 463 0 369 289 79 80
 208 196 0 462 -15 369 562 0 230 365 0 17 289 0 369 230 463 98 462 287 0 465 +17
 79 0 369 463 230 77 466 290 0 208 +17 230 0 369 79 289 95 465 219 0 466 +17 466
 0 413 136 464 95 79 290 0 0 -15 413 1032 0 464 409 0 17 136 0 413 467 466 134 9
7 285 0 277 -17 464 0 413 466 467 77 130 298 0 0 -17 467 0 413 464 136 128 277 2
75 0 0 -17 130 0 442 211 208 128 464 298 0 468 +17 211 0 442 43 130 125 468 209
 0 469 +17 468 0 26 277 127 128 211 209 0 467 -17 277 0 26 32 468 134 467 275 0
 349 +17 127 0 26 468 133 125 350 273 0 211 +17 350 0 417 103 469 131 127 273 0
 0 -15 417 1053 0 469 412 0 17 103 0 417 470 350 101 284 282 0 304 -17 469 0 417
 350 470 125 43 296 0 0 -17 470 0 417 469 103 41 304 302 0 0 -17 43 0 442 471 21
1 41 469 296 0 214 +17 471 0 442 76 43 44 214 212 0 472 -17 214 0 473 304 46 41
 471 212 0 470 +15 473 570 0 214 363 0 17 304 0 473 474 214 101 470 302 0 236 +1
7 46 0 473 214 474 44 475 300 0 471 +17 474 0 473 46 304 104 236 234 0 475 -17 4
75 0 421 112 472 104 46 300 0 0 -15 421 1074 0 472 416 0 17 112 0 421 476 475 11
0 106 330 0 309 -17 472 0 421 475 476 44 76 332 0 0 -17 476 0 421 472 112 74 309
 307 0 0 -17 76 0 442 477 471 74 472 332 0 478 +17 477 0 442 70 76 71 478 198 0
 479 +17 478 0 480 309 73 74 477 198 0 476 -15 480 542 0 478 374 0 17 309 0 480
 481 478 110 476 307 0 482 +17 73 0 480 478 481 71 483 305 0 477 +16 198 793 0 ?
477 199 234 191 193 193 1 17 481 0 480 73 309 107 482 192 0 483 +17 483 0 429 11
8 479 107 73 305 0 0 -15 429 1116 0 479 424 0 17 118 0 429 484 483 116 109 338 0
 319 -17 479 0 429 483 484 71 70 340 0 0 -17 484 0 429 479 118 68 319 317 0 0 -1
7 70 0 442 201 477 68 479 340 0 446 +17 446 0 386 319 67 68 201 199 0 484 -15 38
6 546 0 446 377 0 17 319 0 386 223 446 116 484 317 0 485 +17 67 0 386 446 223 65
 440 315 0 201 +17 223 0 386 67 319 113 485 221 0 440 +17 485 0 347 109 115 116
 223 221 0 0 -17 109 0 347 482 485 107 118 338 0 481 +17 115 0 347 485 448 113 1
21 280 0 223 +17 448 0 347 115 272 119 447 224 0 0 +17 121 0 434 441 440 119 115
 280 0 329 -17 272 0 347 448 246 140 145 270 0 447 +17 447 0 383 486 329 140 448
 224 0 0 -16 224 498 0 ?448 225 221 222 225 225 1 17 486 0 383 487 447 146 142 2
40 0 0 -17 487 0 383 269 486 152 148 239 0 0 +17 142 0 488 145 263 140 486 240 0
 272 +15 488 233 0 263 358 0 17 145 0 488 489 142 143 272 270 0 258 -17 263 0 48
8 142 489 146 490 259 0 486 +17 489 0 488 263 145 155 258 256 0 0 -17 490 0 395
 491 148 155 263 259 0 489 -15 395 413 0 148 391 492 17 491 0 395 493 490 149 15
7 250 0 238 -17 148 0 395 490 266 146 487 239 0 263 -17 266 0 395 148 493 152 16
0 264 0 487 +16 239 445 0 ?487 240 215 235 215 215 1 17 493 0 395 266 491 158 23
8 215 0 269 -17 160 0 390 154 154 158 266 264 0 493 -15 390 396 0 154 382 0 17 1
54 0 390 160 160 152 269 267 0 266 -17 269 0 383 238 487 158 154 267 0 0 +17 238
 0 383 451 269 149 493 215 0 0 +17 451 0 383 449 238 137 151 242 0 0 -17 151 0 4
94 157 495 149 451 242 0 491 +15 494 237 0 495 352 0 17 157 0 494 258 151 155 49
1 250 0 490 +17 495 0 494 151 258 137 246 244 0 451 -17 258 0 494 495 157 143 48
9 256 0 246 +17 246 0 347 272 139 143 495 244 0 0 +17 139 0 347 246 124 137 449
 225 0 495 +17 124 0 347 139 228 122 85 278 0 449 +17 228 0 347 124 88 83 455 22
0 0 0 +17 88 0 347 228 460 86 94 342 0 455 +17 460 0 347 88 91 92 218 216 0 0 -1
7 91 0 347 460 465 89 100 334 0 218 +17 465 0 347 91 97 98 230 219 0 0 -17 97 0
 347 465 349 95 136 285 0 230 +17 349 0 347 97 40 134 32 232 0 0 -17 32 0 26 28
 277 36 349 232 0 33 +17 33 0 174 177 168 36 28 34 0 0 +15 492 177 0 496 391 0 1
7 496 0 492 496 496 0 249 247 0 0 -17 249 0 399 249 249 0 496 247 0 0 +15 399 18
7 0 249 389 0 17 482 0 347 106 109 110 481 192 0 0 -17 106 0 347 236 482 104 112
 330 0 474 +16 192 719 0 ?481 221 34 213 216 216 1 17 236 0 347 284 106 101 474
 234 0 0 +14 374 539 497 ?377 379 480 5 366 -368 368 377 379 22 81 1 497 1976 35
4 374 498 0 436 499 500 80 255 1 354 501 502 9000 1 1 1 1 1 1 1 1 0 FFFFTFTFFFFF
FF1 81 1 498 1868 503 374 0 497 504 505 506 81 1 436 1975 354 18 507 0 433 497 5
08 81 1 499 1977 354 363 509 0 497 510 511 82 255 1 500 -392036083 14 363 567 49
9 ?444 365 473 5 361 +0 0 444 365 22 81 1 509 1873 503 363 0 499 512 513 514 81
 1 510 1978 354 444 513 0 499 515 516 82 1 511 -388693747 14 444 571 510 ?348 36
3 442 5 517 +0 0 348 363 22 81 1 513 1874 503 444 0 510 509 518 519 81 1 515 197
9 354 348 518 0 510 520 521 82 1 516 -389021427 14 348 576 515 ?409 444 347 5 36
4 -0 0 409 444 22 81 1 518 1875 503 348 522 515 513 523 524 81 1 520 1980 354 17
1 525 0 515 526 527 82 1 521 -389414643 14 171 1433 520 ?180 18 166 5 528 +0 0 1
80 18 22 81 1 525 1884 503 171 529 520 507 530 531 81 1 526 1981 354 180 530 0 5
20 532 533 82 1 527 -391053043 14 180 1437 526 ?185 171 534 5 535 -0 0 185 171 2
2 81 1 530 1885 503 180 536 526 525 537 538 81 1 532 1982 354 185 537 0 526 539
 540 82 1 533 -390856435 14 185 1442 532 ?541 180 542 5 543 -0 0 544 180 22 81 1
 537 1886 503 185 545 532 530 546 547 81 1 539 1983 354 541 546 0 532 548 549 82
 1 540 -390659827 14 541 1455 539 ?544 185 550 5 551 -0 0 0 544 22 81 1 546 1887
 503 541 552 539 537 553 554 81 1 548 1984 354 544 553 0 539 0 555 82 1 549 -390
463219 14 544 1459 548 ?0 541 556 5 557 +0 0 541 185 22 81 1 553 1888 503 544 55
8 548 546 0 559 82 1 555 -390201075 80 1 503 0 560 8001 0 0 0 0 3 5 0 0 0 FFFFTF
TFFFFFFF2 81 2 558 1506 561 544 0 553 552 0 0 0 83 255 3 559 .792156862745098 .8
19607843137255 .933333333333333 80 2 561 562 563 9000 0 0 0 0 3 6 0 0 0 FFFFTFFF
FFFFFF9 1 81 2 552 1504 561 541 0 546 545 558 0 0 81 2 545 1502 561 185 0 537 53
6 552 0 0 81 2 536 1500 561 180 0 530 529 545 0 0 81 2 529 1498 561 171 0 525 52
2 536 0 0 81 2 522 1496 561 348 0 518 564 529 0 0 81 2 564 1494 561 16 0 355 0 5
22 0 0 81 1 355 1859 503 16 564 351 0 565 566 81 1 565 1860 503 352 0 356 355 56
7 568 83 3 566 .792156862745098 .819607843137255 .933333333333333 81 1 356 1956
 354 352 565 0 351 367 569 81 1 567 1861 503 358 0 400 565 570 571 83 3 568 .792
156862745098 .819607843137255 .933333333333333 81 1 400 1965 354 358 567 0 398 4
04 572 81 1 570 1862 503 391 0 393 567 573 574 83 3 571 .792156862745098 .819607
843137255 .933333333333333 81 1 393 1963 354 391 570 0 388 398 575 81 1 573 1863
 503 394 0 407 570 576 577 83 3 574 .792156862745098 .819607843137255 .933333333
333333 81 1 407 1967 354 394 573 0 404 411 578 81 1 576 1864 503 396 0 404 573 5
79 580 83 3 577 .792156862745098 .819607843137255 .933333333333333 81 1 404 1966
 354 396 576 0 400 407 581 81 1 579 1865 503 389 0 398 576 582 583 83 3 580 .792
156862745098 .819607843137255 .933333333333333 81 1 398 1964 354 389 579 0 393 4
00 584 81 1 582 1866 503 382 0 388 579 504 585 83 3 583 .792156862745098 .819607
843137255 .933333333333333 81 1 388 1962 354 382 582 0 385 393 586 81 1 504 1867
 503 379 0 381 582 498 587 83 3 585 .792156862745098 .819607843137255 .933333333
333333 81 1 381 1960 354 379 504 0 376 385 588 83 3 587 .792156862745098 .819607
843137255 .933333333333333 81 1 376 1959 354 372 589 0 371 381 590 81 1 385 1961
 354 377 505 0 381 388 591 82 1 588 -403832563 81 1 505 1869 503 377 0 385 498 5
89 592 82 1 591 -403701491 81 1 589 1870 503 372 0 376 505 593 594 83 3 592 .792
156862745098 .819607843137255 .933333333333333 81 1 593 1871 503 368 0 371 589 5
12 595 83 3 594 .792156862745098 .819607843137255 .933333333333333 81 1 371 1958
 354 368 593 0 367 376 596 81 1 512 1872 503 365 0 367 593 509 597 83 3 595 .792
156862745098 .819607843137255 .933333333333333 81 1 367 1957 354 365 512 0 356 3
71 598 83 3 597 .792156862745098 .819607843137255 .933333333333333 82 1 598 -404
225779 82 1 596 -404094707 82 1 590 -403963635 82 1 586 -403570419 82 1 584 -403
308275 82 1 581 -402980595 81 1 411 1968 354 409 523 0 407 415 599 82 1 578 -402
849523 81 1 523 1876 503 409 0 411 518 600 601 81 1 415 1969 354 412 600 0 411 4
19 602 82 1 599 -402718451 81 1 600 1877 503 412 0 415 523 603 604 81 1 419 1970
 354 416 603 0 415 423 605 82 1 602 -402587379 81 1 603 1878 503 416 0 419 600 6
06 607 81 1 423 1971 354 420 606 0 419 427 608 82 1 605 -402456307 81 1 606 1879
 503 420 0 423 603 609 610 81 1 427 1972 354 424 609 0 423 430 611 82 1 608 -402
325235 81 1 609 1880 503 424 0 427 606 612 613 81 1 430 1973 354 428 612 0 427 4
33 614 82 1 611 -402194163 81 1 612 1881 503 428 0 430 609 435 615 82 1 614 -402
063091 81 1 435 1882 503 431 0 433 612 507 616 83 3 615 .792156862745098 .819607
843137255 .933333333333333 81 1 507 1883 503 18 0 436 435 525 617 83 3 616 .7921
56862745098 .819607843137255 .933333333333333 83 3 617 .792156862745098 .8196078
43137255 .933333333333333 83 3 613 .792156862745098 .819607843137255 .9333333333
33333 83 3 610 .792156862745098 .819607843137255 .933333333333333 83 3 607 .7921
56862745098 .819607843137255 .933333333333333 83 3 604 .792156862745098 .8196078
43137255 .933333333333333 83 3 601 .792156862745098 .819607843137255 .9333333333
33333 82 1 575 -403439347 82 1 572 -403177203 82 1 569 -404553459 79 255 17 563
 ATOM_FACE_ID_200179 15 560 SDL/TYSA_COLOUR15 556 1462 0 618 544 0 50 557 1470 0
 544 535 551 0 +.19 .106 -.704548891224176 -.928165398755173 -.064011406810702 -
.3666217837932785 -.365945469157404 .336355779600695 .867726168288347 51 535 147
1 0 180 543 557 0 -.520431233954224 .12460581951882 -.597102162715243 -.98435229
0716476 .03394318243849915 .172911619410533 .008 .173011314730962 0 .98491983682
6868 50 551 1469 0 541 557 517 0 +.19 .136 -.539058512788591 .984352290716476 -.
0339431824384993 -.172911619410532 -.173011314730961 0 -.984919836826868 50 517
 591 0 444 551 364 0 +.535 .046 0 1 0 0 0 0 -1 50 364 590 0 348 517 361 0 +.465
 .046 0 1 0 0 0 0 -1 51 543 1472 0 185 528 535 0 -.19 .106 -.704548891224176 .92
8165398755173 .0640114068107016 .3666217837932775 .008 .367375209017009 0 -.9300
72822847603 50 528 1473 0 171 0 543 0 +.48 .346 -.619094765483027 1 0 0 0 0 -1 1
7 618 0 556 618 618 0 619 183 0 0 +17 619 0 542 619 619 0 618 183 0 0 -16 183 14
22 0 ?618 179 175 620 0 0 1 16 175 1415 0 ?621 183 169 189 0 0 1 31 620 1479 0 1
83 176 184 0 +.19 .106 -.704548891224176 -.928165398755173 -.064011406810702 -.3
666217837932785 -.365945469157404 .336355779600695 .867726168288347 .008 32 176
 1480 0 169 0 620 0 +.48 .126 -.59 1 0 0 0 .1926272770460755 .981271997021119 .0
0812717161878814 .008 32 184 1478 0 179 620 189 0 +.48 .126 -.59 -.1019310645359
184 .177703645989643 .978790821516304 .994788075202843 .0156398611174435 .100757
5316214578 .0290262902190415 .008 17 621 0 534 621 621 0 622 175 0 0 +15 534 144
0 0 621 180 174 17 622 0 550 622 622 0 621 175 0 0 -15 550 1458 0 622 541 0 15 5
42 1445 0 619 185 181 83 3 554 .792156862745098 .819607843137255 .93333333333333
3 83 3 547 .792156862745098 .819607843137255 .933333333333333 83 3 538 .79215686
2745098 .819607843137255 .933333333333333 83 3 531 .792156862745098 .81960784313
7255 .933333333333333 83 3 524 .792156862745098 .819607843137255 .93333333333333
3 83 3 519 .792156862745098 .819607843137255 .933333333333333 83 3 514 .79215686
2745098 .819607843137255 .933333333333333 82 1 508 -401800947 83 3 506 .79215686
2745098 .819607843137255 .933333333333333 79 14 502 SWEntUnchanged82 1 437 -4019
32019 15 408 100 0 623 394 0 17 623 0 408 623 623 0 261 252 0 0 -17 261 0 359 26
1 261 0 623 252 0 0 +15 359 67 0 261 352 494 15 405 87 0 255 396 0 17 255 0 405
 255 255 0 624 253 0 0 +17 624 0 401 624 624 0 255 253 0 0 -15 401 7 0 624 358 4
88 82 1 357 -404684531 19 17 5 0 1 0 9 5 S0 74 4 CI16 index_map_offset0 0 1 dCCZ
20 15 9 0 0 625 626 627 558 548 628 13 553 2 0 0 0 0 0 0 0 0 0 0 0 81 2 625 1249
 629 1 0 626 0 0 0 630 81 2 626 1489 631 1 625 627 0 0 0 632 81 2 627 1492 633 1
 626 628 0 0 0 634 81 1 628 1603 635 1 627 13 0 0 636 81 2 13 1604 637 1 628 2 0
 0 0 0 80 2 637 638 639 9000 0 0 0 0 3 5 0 0 0 FFTFFFFFFFFFFF9 1 79 16 639 BODY_
RECIPE_200180 1 635 640 641 9000 1 1 1 1 1 1 1 1 0 FFTFFFFFFFFFFF1 82 1 636 3867
86 79 10 641 BODY_MATCH80 2 633 642 643 9000 0 0 0 0 3 5 0 0 0 FFTFFFFFFFFFFF9 1
 82 1 634 213 79 30 643 LAST_BODY_MODIFYING_FEATURE_ID80 2 631 644 645 9000 0 0
 0 0 3 5 0 0 0 FFTFFFFFFFFFFT9 1 82 1 632 236 79 19 645 ENT_TIME_STAMP_200180 2
 629 646 647 9000 0 0 0 0 3 5 0 0 0 FFTFFFFFFFFFFF9 1 82 1 630 1 79 24 647 BODY_
IN_LIGHTWEIGHT_PERM80 2 12 648 649 9000 0 0 0 0 3 5 0 0 0 FFTFFFFFFFFFFF9 1 82 1
 14 111 79 12 649 ATOM_ID_20011 0 
