**ABCDEFGHIJKLMNOPQRSTUVWXYZabcdefghijklmnopqrstuvwxyz**************************
**PARASOLID !"#$%&'()*+,-./:;<=>?@[\]^_`{|}~0123456789**************************
**PART1;
MC=AMD64;
MC_MODEL=Intel64 Family 6 Model 165 Stepping 2, GenuineIntel;
MC_ID=unknown;
OS=Windows_NT;
OS_RELEASE=unknown;
FRU=Parasolid Version 33.1, build 255,  1- 8-2022;
APPL=SOLIDWORKS 2022-2022076;
SITE=;
USER=unknown;
FORMAT=text;
GUISE=transmit;
KEY=FILERear_sus_arm.x_t;
DATE=Sun Jun  4 00:19:28 2023;
**PART2;
SCH=SCH_3301255_33103;
USFLD_SIZE=0;
**PART3;
**END_OF_HEADER*****************************************************************
T51 : TRANSMIT FILE created by modeller version 330125523 SCH_3301255_33103_1300
6230 0 10 21 CCCCI7 lattice222 0 CCCI4 mesh1006 0 I8 polyline1008 0 CCCCCCCCCCA1
6 mesh_offset_data206 0 Z1 9 2 3 0 0 0 0 0 0 0 0 1e3 1e-8 0 0 0 1 0 1 4 0 81 255
 2 2 9 5 1 0 0 0 0 0 0 70 11 CI9 list_type0 0 1 uI10 notransmit0 0 1 lCCCDCCDI12
 finger_index0 0 1 dI12 finger_block1012 0 CZ3 0 4 T1 0 0 1 20 1 6 6 11 255 4 7
 0 1 7 8 1 9 0 0 0 12 35 CCCI7 lattice222 0 CCCI4 mesh1006 0 I8 polyline1008 0 C
CCCCCCDI5 owner1040 0 CCCCCCI13 boundary_mesh1006 0 I17 boundary_polyline1008 0
 CCCA16 index_map_offset0 0 1 dA9 index_map82 0 A17 node_id_index_map82 0 A20 sc
hema_embedding_map82 0 A5 child12 0 A14 lowest_node_id0 0 1 dA16 mesh_offset_dat
a206 0 Z7 1206 10 11 0 0 0 0 0 0 0 1e3 1e-8 4 12 0 1 0 1 1 13 14 15 16 0 0 17 18
 19 0 0 0 0 0 0 0 100 10 CCCCCCCCCA9 precision229 0 Z8 8 4 0 0 1 0 0 0 1 0 0 0 1
 0 0 0 1 0 ?0 11 9 5 0 1 12 20 1 21 4 0 0 12 12 1104 22 23 0 0 0 0 0 0 0 1e3 1e-
8 9 24 7 1 0 1 1 25 26 27 28 0 0 29 30 31 0 0 0 0 0 0 0 100 20 6 9 0 0 1 0 0 0 1
 0 0 0 1 0 0 0 1 0 ?0 11 21 3 0 1 24 32 1 33 9 0 0 12 24 505 34 35 0 0 0 0 0 0 0
 1e3 1e-8 21 36 12 1 0 1 1 37 38 39 40 0 0 41 42 43 0 0 0 0 0 0 0 100 32 4 21 0
 0 1 0 0 0 1 0 0 0 1 0 0 0 1 0 ?0 11 33 1 0 1 36 44 1 0 21 0 0 12 36 1831 45 46
 0 0 0 0 0 0 0 1e3 1e-8 33 47 24 1 0 1 1 48 49 50 51 0 0 52 53 54 0 0 0 0 0 0 0
 100 44 2 33 0 0 1 0 0 0 1 0 0 0 1 0 0 0 1 0 ?0 81 1 45 1831 55 36 56 0 0 0 0 70
 46 0 4 T36 0 0 4 20 1 57 57 13 255 48 108 0 36 0 58 0 0 59 0 51 255 49 1204 0 6
0 61 0 0 +.57 .271 -2.12 1 0 0 .01 0 0 -1 31 255 50 985 0 53 62 0 0 -.57 .258445
6264653805 -2.1 1 0 0 0 0 -1 .01 29 255 51 841 0 54 63 0 .57 .1435543735346192 -
2.17 19 8 CCCCCCCA5 owner12 0 Z52 109 0 36 59 0 64 V0 16 255 53 972 0 ?65 0 66 5
0 0 0 36 18 255 54 839 0 67 0 68 51 ?36 17 255 67 0 69 70 71 54 72 73 0 74 +18 6
8 836 0 75 54 76 63 ?36 17 75 0 77 74 78 68 79 80 0 70 +18 76 833 0 81 68 82 83
 ?36 29 63 838 0 68 83 51 .57 .131 -2.17 29 83 835 0 76 84 63 .57 .1517608916011
02 -2.105714285714285 29 84 832 0 82 85 83 .57 .250239108398898 -2.1057142857142
85 18 82 830 0 65 76 86 84 ?36 29 85 829 0 86 87 84 .57 .2584456264653805 -2.11
 18 86 827 0 88 82 89 85 ?36 29 87 826 0 89 90 85 .57 .271 -2.11 18 89 824 0 91
 86 92 87 ?36 29 90 823 0 92 93 87 .57 .281 -2.16 18 92 821 0 94 89 95 90 ?36 29
 93 820 0 95 96 90 .57 .281 -2.12 18 95 818 0 97 92 98 93 ?36 29 96 817 0 98 99
 93 .57 .2584456264653805 -2.17 18 98 815 0 100 95 101 96 ?36 29 99 814 0 101 10
2 96 .57 .271 -2.17 18 101 812 0 103 98 104 99 ?36 29 102 811 0 104 105 99 .57 .
250239108398898 -2.174285714285715 18 104 809 0 106 101 107 102 ?36 29 105 808 0
 107 108 102 .57 .151760891601102 -2.174285714285715 18 107 806 0 109 104 110 10
5 ?36 29 108 795 0 110 111 105 .57 .1435543735346192 -2.11 18 110 793 0 112 107
 113 108 ?36 29 111 792 0 113 114 108 .57 .131 -2.11 18 113 790 0 115 110 116 11
1 ?36 29 114 761 0 116 117 111 .5 .1435543735346192 -2.17 18 116 759 0 118 113 1
19 114 ?36 29 117 758 0 119 120 114 .5 .131 -2.17 18 119 756 0 121 116 122 117 ?
36 29 120 755 0 122 123 117 .5 .250239108398898 -2.174285714285715 18 122 753 0
 124 119 125 120 ?36 29 123 752 0 125 126 120 .5 .151760891601102 -2.17428571428
5715 18 125 750 0 127 122 128 123 ?36 29 126 749 0 128 129 123 .5 .2584456264653
805 -2.17 18 128 747 0 130 125 131 126 ?36 29 129 746 0 131 132 126 .5 .271 -2.1
7 18 131 744 0 133 128 134 129 ?36 29 132 743 0 134 135 129 .5 .281 -2.16 18 134
 741 0 136 131 137 132 ?36 29 135 740 0 137 138 132 .5 .281 -2.12 18 137 738 0 1
39 134 140 135 ?36 29 138 737 0 140 141 135 .5 .2584456264653805 -2.11 18 140 73
5 0 142 137 143 138 ?36 29 141 734 0 143 144 138 .5 .271 -2.11 18 143 732 0 145
 140 146 141 ?36 29 144 731 0 146 147 141 .5 .151760891601102 -2.105714285714285
 18 146 729 0 148 143 149 144 ?36 29 147 728 0 149 150 144 .5 .250239108398898 -
2.105714285714285 18 149 726 0 151 146 152 147 ?36 29 150 725 0 152 153 147 .5 .
1435543735346192 -2.11 18 152 723 0 154 149 155 150 ?36 29 153 722 0 155 156 150
 .5 .131 -2.11 18 155 720 0 157 152 158 153 ?36 29 156 709 0 158 159 153 .57 .12
1 -2.16 18 158 707 0 160 155 161 156 ?36 29 159 706 0 161 162 156 .57 .121 -2.12
 18 161 704 0 163 158 164 159 ?36 29 162 703 0 164 165 159 .5 .121 -2.16 18 164
 701 0 166 161 167 162 ?36 29 165 700 0 167 168 162 .5 .121 -2.12 18 167 698 0 1
69 164 170 165 ?36 29 168 590 0 170 171 165 .5 .121 -2.15153612092522 18 170 586
 0 172 167 173 168 ?36 29 171 585 0 173 174 168 .5 .121 -2.126963708168365 18 17
3 581 0 175 170 176 171 ?36 29 174 382 0 176 177 171 .5 .281 -2.14534101515254 1
8 176 380 0 178 173 179 174 ?36 29 177 137 0 179 180 174 .495704376159766 .27007
4368771231 -2.139263355185355 18 179 136 0 181 176 182 177 ?36 29 180 556 0 182
 183 177 .5 .2734654787483085 -2.14605303751277 18 182 455 0 184 179 185 180 ?36
 29 183 557 0 185 186 180 .5 .259454645914798 -2.139416534298475 18 185 456 0 18
7 182 188 183 ?36 29 186 558 0 188 189 183 .5 .273088656584595 -2.13105690933749
 18 188 475 0 190 185 191 186 ?36 29 189 560 0 191 192 186 .5 .281 -2.1308275271
13885 18 191 457 0 193 188 194 189 ?36 29 192 650 0 194 195 189 .5 .131967034507
6006 -2.139426824482575 18 194 614 0 196 191 197 192 ?36 29 195 651 0 197 0 192
 .5 .119648561334347 -2.13941996304327 18 197 612 0 198 194 0 195 ?36 17 198 0 1
99 200 201 197 202 203 0 204 +15 255 199 617 0 201 205 0 17 200 0 199 201 198 17
0 204 206 0 0 +17 201 0 199 198 200 173 207 208 0 202 -17 202 0 209 210 211 173
 198 203 0 0 -16 203 603 0 ?198 212 213 214 212 212 36 17 204 0 215 216 217 197
 200 206 0 211 -15 215 621 0 204 218 0 17 216 0 215 217 204 194 211 213 0 0 +17
 217 0 215 204 216 170 196 219 0 200 +16 206 604 0 ?200 220 0 221 0 0 36 17 211
 0 209 202 210 197 216 213 0 0 -15 209 625 0 210 222 0 17 210 0 209 211 202 194
 223 212 0 216 -16 213 606 0 ?216 203 224 225 0 0 36 16 224 607 0 ?226 213 220 2
27 0 0 36 32 255 225 645 0 213 227 228 0 +.515 .126 -2.14 -.03840491888547545 -.
000556593027325727 -.999262103959518 .99915717802822 .0144805388120031 -.0384089
519565168 .02352147590738915 .00799999999999981 31 227 646 0 224 221 225 0 +.17
 .121 -2 -.926529300809124 -.01342796088129164 .3759829046761665 .37600357380813
7 .00104681216196429 .926617621604406 .00799999999999981 31 228 644 0 220 225 21
4 0 +.17 .121 -2.25 .95265345664811 .01380657183547966 .303744580380556 .3037735
346326005 0 -.952744267711339 .00799999999999981 16 220 605 0 ?229 224 206 228 0
 0 36 32 214 643 0 212 228 230 0 +.5 .125782608695652 -2.13391304347826 1 0 0 0
 .0356915305124122 -.99936285434755 .00863437345479904 .00799999999999981 16 212
 608 0 ?223 231 203 214 203 203 36 31 230 555 0 232 214 233 0 +.57 .201 -2.14 1
 0 0 0 0 -1 .06 16 232 831 0 ?234 235 236 230 237 237 36 30 255 233 554 0 238 23
0 239 0 +.57 .046 -2.17 0 -1 0 16 238 813 0 ?240 241 237 233 0 0 36 30 239 553 0
 241 233 242 0 +.57 .281 0 0 0 -1 16 241 819 0 ?243 236 238 239 0 0 36 30 242 55
2 0 236 239 244 0 +.57 .046 -2.11 0 -1 0 16 236 825 0 ?245 232 241 242 0 0 36 30
 244 551 0 235 242 246 0 +.57 .046 -2.11 0 1 0 16 235 791 0 ?247 248 232 244 0 0
 36 30 246 550 0 248 244 249 0 +.57 .121 0 0 0 -1 16 248 705 0 ?78 250 235 246 0
 0 36 30 249 549 0 250 246 251 0 +.57 .046 -2.17 0 1 0 16 250 837 0 ?74 252 248
 249 0 0 36 31 251 548 0 231 249 253 0 +.5 .201 -2.14 1 0 0 0 0 -1 .06 16 231 75
1 0 ?254 255 212 251 256 256 36 30 253 547 0 255 251 257 0 +.5 .046 -2.17 0 -1 0
 16 255 745 0 ?258 259 231 253 0 0 36 30 257 546 0 260 253 261 0 +.5 .281 0 0 0
 -1 16 260 739 0 ?193 262 259 257 259 263 36 30 261 545 0 262 257 264 0 +.5 .046
 -2.11 0 -1 0 16 262 733 0 ?265 256 260 261 0 0 36 30 264 544 0 266 261 267 0 +.
5 .046 -2.11 0 1 0 16 266 721 0 ?268 269 256 264 0 0 36 30 267 543 0 270 264 271
 0 +.5 .121 0 0 0 -1 16 270 699 0 ?175 272 208 267 269 208 36 30 271 542 0 272 2
67 273 0 +.5 .046 -2.17 0 1 0 16 272 757 0 ?71 237 270 271 0 0 36 32 273 323 0 2
52 271 274 0 +.5 .2655652173913045 -2.13391304347826 1 0 0 0 .0712470499879095 -
.997458699830735 .00863670843662087 .008 16 252 239 0 ?187 275 250 273 0 0 36 32
 274 322 0 275 273 276 0 +.5 .2655652173913045 -2.144782608695655 1 0 0 0 -.0905
357460425185 -.995893206467704 .00839999799961971 .008 16 275 240 0 ?184 277 252
 274 0 0 36 31 276 197 0 277 274 278 0 +.16 .521 -2.1 .808805035381358 -.5809726
31048581 -.0911329617331129 .583400315193264 .812184752523956 0 .007999999999999
91 16 277 159 0 ?279 280 275 276 0 0 36 32 278 194 0 280 276 281 0 +.515 .266 -2
.14 -.194156441115742 -.82297318136328 -.533871163418733 -.947756957373783 .2977
86673292947 -.114367158567089 .0216366241328798 .008 16 280 162 0 ?282 283 277 2
78 0 0 36 31 281 20 0 284 278 285 0 +.17 .256 -2 -.926278808495941 -.02684866111
58244 .375881255621542 .3759639062326235 .002092474539131085 .926631945683188 .0
08 16 284 6 0 ?286 287 283 281 0 0 36 32 285 34 0 287 281 288 0 +.515 .266 -2.14
 -.03838354867459045 -.00111256662824899 -.99926246071122 .99884295504172 .02895
196971135415 -.03839966944332915 .0235280077120864 .008 16 287 227 0 ?181 289 28
4 285 0 0 36 31 288 75 0 283 285 290 0 +.17 .256 -2.25 .952381179181495 .0276052
51570478 .303657767275259 .3037735346326005 0 -.952744267711339 .008 16 283 68 0
 ?291 284 280 288 0 0 36 32 290 144 0 289 288 292 0 -.515 .266 -2.14 .1723964400
770505 .89199677676113 -.4178770365747735 .922750960518726 -.294693785148322 -.2
483671432712515 .02348050095013405 .008 16 289 219 0 ?293 294 287 290 0 0 36 32
 292 223 0 295 290 296 0 -.5 .276774647887324 -2.13830985915493 1 0 0 0 -.987919
526388226 -.154967768845212 .00989113525514568 .00799999999999991 16 295 221 0 ?
297 263 298 292 294 298 36 32 296 597 0 219 292 299 0 -.5 .1257826086956522 -2.1
44782608695655 1 0 0 0 -.0454076609186497 -.9989685402103 .00839759719987543 .00
799999999999981 16 219 595 0 ?217 300 263 296 0 0 36 30 299 712 0 300 296 301 0
 -.57 .121 -2.16 -1 0 0 16 300 710 0 ?160 302 219 299 0 0 36 30 301 717 0 302 29
9 303 0 +.5 .121 -2.12 -1 0 0 16 302 715 0 ?304 305 300 301 0 0 36 31 303 764 0
 305 301 306 0 -.5 .271 -2.12 1 0 0 0 0 -1 .01 16 305 762 0 ?139 307 302 303 0 0
 36 31 306 771 0 307 303 308 0 -.5 .271 -2.16 1 0 0 0 0 -1 .01 16 307 769 0 ?133
 309 305 306 0 0 36 31 308 778 0 309 306 310 0 -.5 .131 -2.16 1 0 0 0 0 -1 .01 1
6 309 776 0 ?166 311 307 308 0 0 36 31 310 785 0 311 308 312 0 -.5 .131 -2.12 1
 0 0 0 0 -1 .01 16 311 783 0 ?157 313 309 310 0 0 36 30 312 798 0 313 310 314 0
 +.57 .1435543735346192 -2.11 -1 0 0 16 313 796 0 ?315 316 311 312 0 0 36 30 314
 803 0 316 312 317 0 -.57 .131 -2.11 -1 0 0 16 316 801 0 ?115 318 313 314 0 0 36
 31 317 844 0 318 314 319 0 +.57 .271 -2.12 1 0 0 0 0 -1 .01 16 318 842 0 ?91 32
0 316 317 0 0 36 31 319 851 0 320 317 321 0 +.57 .271 -2.16 1 0 0 0 0 -1 .01 16
 320 849 0 ?94 80 318 319 0 0 36 31 321 858 0 80 319 322 0 +.57 .131 -2.16 1 0 0
 0 0 -1 .01 16 80 856 0 ?75 323 320 321 0 0 36 31 322 865 0 323 321 324 0 +.57 .
131 -2.12 1 0 0 0 0 -1 .01 16 323 863 0 ?163 325 80 322 0 0 36 30 324 872 0 325
 322 326 0 +.57 .250239108398898 -2.105714285714285 -1 0 0 16 325 870 0 ?327 328
 323 324 0 0 36 30 326 877 0 328 324 329 0 -.57 .151760891601102 -2.105714285714
285 -1 0 0 16 328 875 0 ?81 73 325 326 0 0 36 30 329 882 0 73 326 330 0 +.57 .14
35543735346192 -2.17 1 0 0 16 73 880 0 ?67 331 328 329 0 0 36 30 330 887 0 331 3
29 332 0 +.57 .131 -2.17 -1 0 0 16 331 885 0 ?333 334 73 330 0 0 36 30 332 892 0
 334 330 335 0 -.57 .250239108398898 -2.174285714285715 -1 0 0 16 334 890 0 ?106
 336 331 332 0 0 36 30 335 897 0 336 332 337 0 +.57 .151760891601102 -2.17428571
4285715 -1 0 0 16 336 895 0 ?338 339 334 335 0 0 36 30 337 902 0 339 335 340 0 -
.57 .271 -2.17 -1 0 0 16 339 900 0 ?103 341 336 337 0 0 36 30 340 907 0 341 337
 342 0 +.57 .2584456264653805 -2.17 -1 0 0 16 341 905 0 ?343 344 339 340 0 0 36
 30 342 912 0 344 340 345 0 -.57 .281 -2.12 -1 0 0 16 344 910 0 ?97 346 341 342
 0 0 36 30 345 917 0 346 342 347 0 +.57 .281 -2.16 -1 0 0 16 346 915 0 ?348 349
 344 345 0 0 36 30 347 922 0 349 345 350 0 +.5 .271 -2.11 -1 0 0 16 349 920 0 ?3
51 352 346 347 0 0 36 30 350 927 0 352 347 353 0 +.57 .2584456264653805 -2.11 1
 0 0 16 352 925 0 ?88 354 349 350 0 0 36 31 353 978 0 354 350 355 0 +.5 .1435543
735346192 -2.1 1 0 0 0 0 -1 .01 16 354 930 0 ?148 356 352 353 0 0 36 31 355 979
 0 356 353 357 0 -.57 .1435543735346192 -2.1 1 0 0 0 0 -1 .01 16 356 936 0 ?112
 358 354 355 0 0 36 31 357 980 0 358 355 359 0 +.5 .1435543735346192 -2.18 1 0 0
 0 0 -1 .01 16 358 942 0 ?118 360 356 357 0 0 36 31 359 981 0 360 357 361 0 -.57
 .1435543735346192 -2.18 1 0 0 0 0 -1 .01 16 360 948 0 ?109 362 358 359 0 0 36 3
1 361 982 0 362 359 363 0 +.5 .2584456264653805 -2.18 1 0 0 0 0 -1 .01 16 362 95
4 0 ?124 364 360 361 0 0 36 31 363 983 0 364 361 62 0 -.57 .2584456264653805 -2.
18 1 0 0 0 0 -1 .01 16 364 960 0 ?100 66 362 363 0 0 36 31 62 984 0 66 363 50 0
 +.5 .2584456264653805 -2.1 1 0 0 0 0 -1 .01 16 66 966 0 ?142 53 364 62 0 0 36 1
7 142 0 365 366 367 140 151 66 0 265 +15 365 596 0 368 369 0 17 366 0 365 139 14
2 143 265 262 0 0 -17 367 0 365 142 148 149 370 256 0 0 -17 151 0 371 372 373 14
9 142 66 0 327 -17 265 0 374 88 351 140 366 262 0 373 +15 374 496 0 265 375 0 17
 88 0 374 376 265 86 373 352 0 245 +17 351 0 374 265 376 143 377 349 0 366 +17 3
73 0 371 151 378 140 88 352 0 0 -15 371 1172 0 378 379 0 17 378 0 371 373 372 86
 65 53 0 0 -17 372 0 371 378 151 82 327 325 0 0 -17 65 0 77 234 245 82 378 53 0
 380 +15 77 517 0 381 382 0 17 234 0 77 112 65 76 380 232 0 383 +17 245 0 77 65
 91 86 376 236 0 378 +17 380 0 384 327 81 82 234 232 0 372 -15 384 500 0 370 385
 0 17 327 0 384 370 380 149 372 325 0 367 +17 81 0 384 380 370 76 386 328 0 234
 +17 370 0 384 81 327 146 367 256 0 386 +17 386 0 387 154 383 146 81 328 0 0 -15
 387 1067 0 383 388 0 17 154 0 387 389 386 152 148 354 0 315 -17 383 0 387 386 3
89 76 112 356 0 0 -17 389 0 387 383 154 110 315 313 0 0 -17 112 0 77 381 234 110
 383 356 0 247 +17 381 0 77 163 112 113 247 235 0 390 -17 247 0 391 315 115 110
 381 235 0 389 +15 391 504 0 392 393 0 17 315 0 391 392 247 152 389 313 0 268 +1
7 115 0 391 247 392 113 394 316 0 381 +17 392 0 391 115 315 155 268 266 0 394 -1
7 394 0 395 169 390 155 115 316 0 0 -15 395 1046 0 390 396 0 17 169 0 395 397 39
4 167 157 311 0 304 -17 390 0 395 394 397 113 163 323 0 0 -17 397 0 395 390 169
 161 304 302 0 0 -17 163 0 77 78 381 161 390 323 0 398 +17 78 0 77 75 163 158 39
8 248 0 79 +17 398 0 399 304 160 161 78 248 0 397 -15 399 508 0 398 400 0 17 304
 0 399 175 398 167 397 302 0 368 +17 160 0 399 398 401 158 402 300 0 78 +17 401
 0 399 160 207 164 172 269 0 402 +17 402 0 403 121 79 164 160 300 0 0 -15 403 10
88 0 79 404 0 17 121 0 403 405 402 119 166 309 0 333 -17 79 0 403 402 405 158 75
 80 0 0 -17 405 0 403 79 121 68 333 331 0 0 -17 333 0 69 71 70 119 405 331 0 406
 +15 69 512 0 70 407 0 17 71 0 69 67 333 116 406 272 0 72 +17 70 0 69 333 67 68
 74 250 0 405 -17 406 0 365 166 118 119 71 272 0 0 -17 166 0 365 172 406 164 121
 309 0 401 +17 118 0 365 406 408 116 127 358 0 71 +17 408 0 365 118 124 125 254
 231 0 0 -17 127 0 409 410 72 125 118 358 0 338 -15 409 1109 0 411 412 0 17 410
 0 409 411 127 107 338 336 0 0 -17 72 0 409 127 411 116 67 73 0 0 -17 338 0 413
 254 414 125 410 336 0 408 +15 413 484 0 414 415 0 17 254 0 413 106 338 122 408
 231 0 416 +17 414 0 413 338 106 107 417 237 0 410 -17 106 0 413 414 254 104 416
 334 0 417 +17 417 0 77 100 109 104 414 237 0 418 +16 237 807 0 ?417 238 272 230
 232 232 36 17 100 0 77 419 417 98 418 364 0 240 +17 109 0 77 417 74 107 411 360
 0 414 +17 418 0 420 416 421 104 100 364 0 0 -15 420 1130 0 418 422 0 17 416 0 4
20 130 418 122 106 334 0 0 -17 421 0 420 418 130 98 343 341 0 0 -17 130 0 420 42
1 416 128 124 362 0 343 -17 343 0 423 424 240 128 421 341 0 258 +15 423 488 0 24
0 425 0 17 424 0 423 103 343 131 258 255 0 426 -17 240 0 423 343 103 98 419 238
 0 421 +17 258 0 365 124 133 128 424 255 0 0 +17 124 0 365 408 258 122 130 362 0
 254 +17 133 0 365 258 427 131 136 307 0 424 +17 427 0 365 133 428 134 178 259 0
 0 +17 136 0 429 430 426 134 133 307 0 348 -15 429 1151 0 431 432 0 17 430 0 429
 431 136 92 348 346 0 0 -17 426 0 429 136 431 131 103 339 0 0 -17 348 0 433 178
 243 134 430 346 0 427 +15 433 492 0 243 434 0 17 178 0 433 435 348 176 427 259
 0 428 -17 243 0 433 348 97 92 436 241 0 430 +17 97 0 433 243 437 95 438 344 0 4
36 +17 436 0 77 91 94 95 243 241 0 439 -17 91 0 77 245 436 89 439 318 0 376 +17
 94 0 77 436 419 92 431 320 0 243 +17 439 0 440 438 377 95 91 318 0 0 -15 440 11
93 0 439 60 0 17 438 0 440 145 439 137 97 344 0 0 -17 377 0 440 439 145 89 351 3
49 0 0 -17 145 0 440 377 438 143 139 305 0 351 -17 139 0 365 193 366 137 145 305
 0 437 +17 193 0 365 190 139 191 437 260 0 435 +17 437 0 433 97 435 137 193 260
 0 438 -17 435 0 433 437 178 191 441 263 0 442 -17 441 0 443 442 442 176 435 263
 0 444 +16 263 383 0 ?441 219 295 257 260 259 36 17 442 0 443 441 441 191 444 29
8 0 297 -15 443 284 0 442 58 0 17 444 0 445 446 297 176 442 298 0 0 +16 298 378
 0 ?444 295 294 292 295 294 36 17 297 0 445 444 447 191 190 295 0 0 +15 445 176
 0 447 448 0 17 447 0 445 297 449 188 293 289 0 0 -17 190 0 365 187 193 188 297
 295 0 450 -17 187 0 365 184 190 185 450 252 0 451 +17 450 0 452 293 453 188 187
 252 0 447 -15 452 230 0 450 454 0 17 293 0 452 453 450 179 447 289 0 449 +17 45
3 0 452 450 293 185 181 287 0 0 -17 181 0 455 282 451 179 453 287 0 293 +15 455
 234 0 451 456 0 17 282 0 455 451 181 182 449 280 0 0 +17 451 0 455 181 282 185
 184 275 0 453 -17 184 0 365 428 187 182 451 275 0 446 +17 428 0 365 427 184 176
 446 294 0 441 -17 446 0 445 449 444 182 428 294 0 282 +17 449 0 445 447 446 179
 282 280 0 0 -16 294 381 0 ?446 298 289 292 298 295 36 14 255 456 235 457 ?454 5
8 458 48 459 -0 0 454 58 64 81 1 457 1801 460 456 461 0 0 462 463 14 454 231 462
 ?448 456 464 48 465 -0 0 448 456 64 14 58 385 466 ?456 0 443 48 467 +0 0 456 0
 64 15 458 67 0 291 456 455 51 459 73 0 456 465 468 0 -.53868216324717 .26668643
95144105 -2.132449165341485 -.952381179181495 -.02760525157047805 -.303657767275
259 .008 -.3037735346326005 0 .952744267711339 13 64 56 0 0 0 0 0 0 52 58 51 465
 19 0 454 469 459 0 -.17 .256 -2 .926278808495941 .02684866111582435 -.375881255
621542 .008 -.3760168060246575 0 -.926612843417905 50 255 468 91 0 470 459 471 0
 +.17 .256 -2 -.926278808495941 -.0268486611158244 .375881255621542 .37596390623
26235 .002092474539131085 .926631945683188 14 470 85 472 ?473 474 475 48 468 +0
 0 474 448 64 50 471 104 0 474 468 476 0 +.17 .256 -2.25 .952381179181495 .02760
5251570478 .303657767275259 .3037735346326005 0 -.952744267711339 14 474 98 477
 ?470 448 478 48 471 -0 0 473 470 64 51 476 1057 0 396 471 479 0 +.57 .131 -2.12
 1 0 0 .01 0 0 -1 14 396 1045 480 ?388 481 395 48 476 +0 0 388 482 64 51 479 107
8 0 388 476 483 0 +.57 .1435543735346192 -2.1 -1 0 0 .01 0 0 1 14 388 1066 484 ?
404 396 387 48 479 -0 0 404 396 64 51 483 1099 0 404 479 485 0 +.57 .131 -2.16 -
1 0 0 .01 0 0 1 14 404 1087 486 ?412 388 403 48 483 +0 0 412 388 64 51 485 1120
 0 412 483 487 0 +.57 .1435543735346192 -2.18 -1 0 0 .01 0 0 1 14 412 1108 488 ?
422 404 409 48 485 -0 0 422 404 64 51 487 1141 0 422 485 489 0 +.57 .25844562646
53805 -2.18 -1 0 0 .01 0 0 1 14 422 1129 490 ?432 412 420 48 487 -0 0 432 412 64
 51 489 1162 0 432 487 61 0 +.57 .271 -2.16 -1 0 0 .01 0 0 1 14 432 1150 491 ?37
9 422 429 48 489 +0 0 379 422 64 51 61 1183 0 379 489 49 0 +.57 .258445626465380
5 -2.1 -1 0 0 .01 0 0 1 14 379 1171 492 ?60 432 371 48 61 -0 0 60 432 64 81 1 49
2 1812 460 379 493 0 491 494 495 14 60 1192 494 ?0 379 440 48 49 +0 0 0 379 64 8
1 1 494 1813 460 60 496 0 492 497 498 80 255 1 460 499 500 9000 1 1 1 1 1 1 1 1
 0 FFFFTFTFFFFFFF1 81 1 496 1734 501 60 0 494 493 0 502 81 1 497 1814 460 481 50
3 0 494 504 505 82 255 1 498 594477704 14 481 629 497 ?396 482 506 48 507 +0 0 4
82 222 64 81 1 503 1726 501 481 0 497 508 509 510 81 1 504 1815 460 482 508 0 49
7 511 512 82 1 505 598737544 14 482 626 504 ?481 222 513 48 514 -0 0 396 481 64
 81 1 508 1725 501 482 0 504 515 503 516 81 1 511 1816 460 222 515 0 504 517 518
 82 1 512 598999688 14 222 622 511 ?482 218 519 48 520 -0 0 481 218 64 81 1 515
 1724 501 222 0 511 521 508 522 81 1 517 1817 460 218 521 0 511 523 524 82 1 518
 599261832 14 218 618 517 ?222 205 525 48 526 -0 0 222 205 64 81 1 521 1723 501
 218 0 517 527 515 528 81 1 523 1818 460 205 527 0 517 529 530 82 1 524 59952397
6 14 205 615 523 ?218 369 199 48 531 +0 0 218 369 64 81 1 527 1722 501 205 0 523
 532 521 533 81 1 529 1819 460 369 532 0 523 534 535 82 1 530 599786120 14 369 5
18 529 ?205 382 365 48 536 -0 0 205 382 64 81 1 532 1721 501 369 0 529 537 527 5
38 81 1 534 1820 460 382 537 0 529 539 540 82 1 535 596116104 14 382 513 534 ?36
9 407 77 48 541 +0 0 369 407 64 81 1 537 1720 501 382 0 534 542 532 543 81 1 539
 1821 460 407 542 0 534 544 545 82 1 540 596378248 14 407 509 539 ?382 400 69 48
 546 -0 0 382 400 64 81 1 542 1719 501 407 0 539 547 537 548 81 1 544 1822 460 4
00 547 0 539 549 550 82 1 545 596640392 14 400 505 544 ?407 393 399 48 551 -0 0
 407 393 64 81 1 547 1718 501 400 0 544 552 542 553 81 1 549 1823 460 393 552 0
 544 554 555 82 1 550 596902536 14 393 501 549 ?400 385 391 48 556 +0 0 400 385
 64 81 1 552 1717 501 393 0 549 557 547 558 81 1 554 1824 460 385 557 0 549 559
 560 82 1 555 597164680 14 385 497 554 ?393 375 384 48 561 -415 415 393 375 64 8
1 1 557 1716 501 385 0 554 562 552 563 81 1 559 1825 460 375 562 0 554 564 565 8
2 1 560 597426824 14 375 493 559 ?385 434 374 48 566 -0 0 385 434 64 81 1 562 17
15 501 375 0 559 567 557 568 81 1 564 1826 460 434 567 0 559 569 570 82 1 565 59
7688968 14 434 489 564 ?375 425 433 48 571 +0 0 375 425 64 81 1 567 1714 501 434
 0 564 572 562 573 81 1 569 1827 460 425 572 0 564 574 575 82 1 570 597951112 14
 425 485 569 ?434 415 423 48 576 +0 0 434 415 64 81 1 572 1713 501 425 0 569 577
 567 578 81 1 574 1828 460 415 577 0 569 579 580 82 1 575 598213256 14 415 481 5
74 ?425 473 413 48 561 -385 385 425 473 64 81 1 577 1712 501 415 0 574 581 572 5
82 81 1 579 1829 460 473 581 0 574 583 584 82 1 580 598475400 14 473 180 579 ?41
5 470 585 48 469 -0 0 415 474 64 81 1 581 1711 501 473 0 579 586 577 587 81 1 58
3 1830 460 448 588 0 579 0 589 82 1 584 600834696 14 448 224 583 ?474 454 590 48
 591 +0 0 470 454 64 81 1 588 1708 501 448 0 583 592 593 594 82 1 589 600048264
 80 1 501 0 595 8001 0 0 0 0 3 5 0 0 0 FFFFTFTFFFFFFF2 81 1 592 1707 501 454 0 4
62 461 588 596 81 1 593 1709 501 474 0 477 588 586 597 83 255 3 594 .79215686274
5098 .819607843137255 .933333333333333 81 1 477 1805 460 474 593 0 472 480 598 8
1 1 586 1710 501 470 0 472 593 581 599 83 3 597 .792156862745098 .81960784313725
5 .933333333333333 81 1 472 1804 460 470 586 0 466 477 600 83 3 599 .79215686274
5098 .819607843137255 .933333333333333 81 1 466 1803 460 58 601 0 462 472 602 82
 1 600 593298056 81 1 601 1705 501 58 0 466 0 461 603 81 1 462 1802 460 454 592
 0 457 466 604 82 1 602 592904840 82 1 604 592839304 81 1 461 1706 501 456 0 457
 601 592 605 83 3 603 .792156862745098 .819607843137255 .933333333333333 83 3 60
5 .792156862745098 .819607843137255 .933333333333333 81 1 480 1806 460 396 509 0
 477 484 606 82 1 598 593429128 81 1 509 1727 501 396 0 480 503 607 608 81 1 484
 1807 460 388 607 0 480 486 609 82 1 606 593560200 81 1 607 1728 501 388 0 484 5
09 610 611 81 1 486 1808 460 404 610 0 484 488 612 82 1 609 593691272 81 1 610 1
729 501 404 0 486 607 613 614 81 1 488 1809 460 412 613 0 486 490 615 82 1 612 5
93822344 81 1 613 1730 501 412 0 488 610 616 617 81 1 490 1810 460 422 616 0 488
 491 618 82 1 615 593953416 81 1 616 1731 501 422 0 490 613 619 620 81 1 491 181
1 460 432 619 0 490 492 621 82 1 618 594084488 81 1 619 1732 501 432 0 491 616 4
93 622 82 1 621 594215560 81 1 493 1733 501 379 0 492 619 496 623 83 3 622 .7921
56862745098 .819607843137255 .933333333333333 83 3 623 .792156862745098 .8196078
43137255 .933333333333333 83 3 620 .792156862745098 .819607843137255 .9333333333
33333 83 3 617 .792156862745098 .819607843137255 .933333333333333 83 3 614 .7921
56862745098 .819607843137255 .933333333333333 83 3 611 .792156862745098 .8196078
43137255 .933333333333333 83 3 608 .792156862745098 .819607843137255 .9333333333
33333 83 3 596 .792156862745098 .819607843137255 .933333333333333 79 255 15 595
 SDL/TYSA_COLOUR15 590 175 0 279 448 445 51 591 193 0 448 467 469 0 +.16 .521 -2
.1 .808805035381358 -.580972631048581 -.0911329617331109 .00799999999999991 .583
400315193264 .812184752523956 0 50 467 316 0 58 576 591 0 +.5 .296 -2.19 1 0 0 0
 0 -1 50 469 191 0 473 591 465 0 +.16 .521 -2.1 .808805035381358 -.5809726310485
81 -.0911329617331129 .583400315193264 .812184752523956 0 50 576 525 0 425 571 4
67 0 +.57 .046 -2.17 0 0 -1 -1 0 0 50 571 526 0 434 566 576 0 +.57 .281 0 0 1 0
 0 0 1 50 566 527 0 375 561 571 0 +.57 .046 -2.11 0 0 -1 -1 0 0 51 561 528 0 385
 556 566 0 -.57 .201 -2.14 -1 0 0 .06 0 0 1 50 556 529 0 393 551 561 0 +.57 .046
 -2.11 0 0 1 1 0 0 50 551 530 0 400 546 556 0 +.57 .121 0 0 1 0 0 0 1 50 546 531
 0 407 536 551 0 +.57 .046 -2.17 0 0 1 1 0 0 50 536 532 0 369 541 546 0 +.5 .046
 0 1 0 0 0 0 -1 50 541 533 0 382 514 536 0 +.57 .046 0 1 0 0 0 0 -1 50 514 637 0
 482 507 541 0 +.17 .121 -2.25 .95265345664811 .01380657183547966 .3037445803805
56 .3037735346326005 0 -.952744267711339 50 507 638 0 481 526 514 0 +.17 .121 -2
 -.926529300809124 -.01342796088129164 .3759829046761665 .376003573808137 .00104
681216196429 .926617621604406 51 526 639 0 218 520 507 0 -.538478257398969 .1263
40264599985 -2.13251417880033 -.95265345664811 -.01380657183547974 -.30374458038
05565 .00799999999999981 -.3037735346326005 0 .952744267711339 51 520 640 0 222
 531 526 0 -.17 .121 -2 .926529300809123 .01342796088129154 -.3759829046761665 .
00799999999999981 -.3760168060246575 0 -.926612843417905 50 531 641 0 205 0 520
 0 +.5 .296 -2.19 1 0 0 0 0 -1 17 279 0 590 279 279 0 624 277 0 0 +17 624 0 585
 624 624 0 279 277 0 0 -15 585 182 0 624 473 0 83 3 587 .792156862745098 .819607
843137255 .933333333333333 83 3 582 .792156862745098 .819607843137255 .933333333
333333 83 3 578 .792156862745098 .819607843137255 .933333333333333 83 3 573 .792
156862745098 .819607843137255 .933333333333333 83 3 568 .792156862745098 .819607
843137255 .933333333333333 83 3 563 .792156862745098 .819607843137255 .933333333
333333 83 3 558 .792156862745098 .819607843137255 .933333333333333 83 3 553 .792
156862745098 .819607843137255 .933333333333333 83 3 548 .792156862745098 .819607
843137255 .933333333333333 83 3 543 .792156862745098 .819607843137255 .933333333
333333 83 3 538 .792156862745098 .819607843137255 .933333333333333 83 3 533 .792
156862745098 .819607843137255 .933333333333333 83 3 528 .792156862745098 .819607
843137255 .933333333333333 15 525 620 0 229 218 215 17 229 0 525 229 229 0 625 2
20 0 0 +17 625 0 513 625 625 0 229 220 0 0 -15 513 628 0 625 482 0 83 3 522 .792
156862745098 .819607843137255 .933333333333333 15 519 624 0 626 222 209 17 626 0
 519 626 626 0 226 224 0 0 -17 226 0 506 226 226 0 626 224 0 0 +15 506 631 0 226
 481 0 83 3 516 .792156862745098 .819607843137255 .933333333333333 83 3 510 .792
156862745098 .819607843137255 .933333333333333 83 3 502 .792156862745098 .819607
843137255 .933333333333333 79 14 500 SWEntUnchanged82 1 495 594346632 15 478 100
 0 627 474 0 17 627 0 478 627 627 0 291 283 0 0 -17 291 0 458 291 291 0 627 283
 0 0 +15 475 87 0 286 470 0 17 286 0 475 286 286 0 628 284 0 0 +17 628 0 464 628
 628 0 286 284 0 0 -15 464 7 0 628 454 452 82 1 463 592708232 16 259 441 0 ?427
 260 255 257 263 260 36 17 419 0 77 94 100 101 240 238 0 431 -17 431 0 429 426 4
30 101 94 320 0 0 -17 376 0 374 351 88 89 245 236 0 377 -17 103 0 423 240 424 10
1 426 339 0 419 +17 74 0 77 109 75 54 70 250 0 411 +17 411 0 409 72 410 54 109 3
60 0 0 -17 172 0 365 196 166 170 401 269 0 207 -17 196 0 365 223 172 194 217 219
 0 210 -16 269 587 0 ?401 208 266 267 208 270 36 17 207 0 399 401 175 170 201 20
8 0 217 +17 175 0 399 207 304 173 368 270 0 223 +16 208 582 0 ?207 270 269 267 2
70 269 36 17 368 0 365 157 223 167 175 270 0 0 -17 223 0 365 368 196 173 210 212
 0 201 +17 157 0 365 268 368 155 169 311 0 392 +17 268 0 365 148 157 152 392 266
 0 0 +17 148 0 365 367 268 146 154 354 0 370 +16 256 727 0 ?370 266 262 251 231
 231 36 32 221 647 0 206 0 227 0 +.5 .1257826086956522 -2.144782608695655 1 0 0
 0 -.0454076609186497 -.9989685402103 .00839759719987543 .00799999999999981 19 5
9 5 0 36 0 52 48 S0 74 4 CI16 index_map_offset0 0 1 dCCZ20 57 4 0 0 583 56 496 4
5 0 0 0 0 0 0 0 0 0 0 0 0 0 0 0 0 81 3 56 1674 629 36 0 45 0 0 630 631 632 80 3
 629 633 634 9000 0 1 0 0 1 1 1 1 0 FFTFFFFFFFFFFF1 1 1 82 1 630 401904 82 1 631
 806 82 7 632 402260 402262 402372 402348 402332 402364 402360 79 13 634 TempAxi
sFaces80 1 55 635 636 8017 0 0 0 0 0 0 0 0 0 TTTTTTTTTTTTTF3 79 13 636 SDL/TYSA_
NAME81 1 34 505 55 24 637 0 0 0 0 70 35 0 4 T24 0 0 4 20 1 638 638 13 37 8 0 24
 0 639 0 0 640 0 50 38 102 0 639 641 0 0 +.1529183897139115 .510699475947508 -2.
048193490828365 -.0270918999283547 .01862568120074385 -.999459410360461 -.999632
819711122 0 .0270966004581872 30 39 108 0 642 643 0 0 -.0696945798265672 .567915
845245057 -2.044871309908655 .566528822887065 .824041924199368 -1828777630087675
e-33 29 40 96 0 644 645 0 .1615936816976195 .531432883487262 -2.11210838368387 1
9 41 6 0 24 640 0 646 V0 16 42 28 0 ?647 0 648 649 0 0 24 18 43 40 0 650 0 644 6
51 ?24 17 650 0 652 653 654 43 655 656 0 657 -18 644 39 0 654 43 658 40 ?24 29 6
51 92 0 43 659 660 .1653820238174275 .528828398279894 -2.109568948156035 29 659
 91 0 661 662 651 .1646907602132755 .532944233477551 -2.04809805135612 29 660 93
 0 663 651 664 .1653820238174275 .528828398279894 -2.051096429587205 18 663 35 0
 653 665 666 660 ?24 29 664 94 0 665 660 645 .162991173744622 .530472107704948 -
2.04809805135612 18 665 36 0 667 668 663 664 ?24 29 645 95 0 658 664 40 .0807607
218830884 .587005543359752 -2.05040912366757 18 658 38 0 669 644 668 645 ?24 17
 669 0 652 654 647 658 670 671 0 672 -18 668 37 0 647 658 665 673 ?24 17 647 0 6
52 669 667 668 674 42 0 670 +29 673 85 0 668 0 675 .0821582139300829 .5860447675
77444 -2.044871309908655 29 675 86 0 676 673 677 .16329326816628 .53390500925986
 -2.11210838368387 18 676 33 0 678 666 679 675 ?24 29 677 87 0 680 675 681 .0824
603083517487 .58947766913235 -2.05040912366757 18 680 31 0 682 679 683 677 ?24 2
9 681 88 0 679 677 684 .1670816102860885 .531300524052492 -2.051096429587205 18
 679 32 0 685 676 680 681 ?24 29 684 89 0 683 681 662 .1670816102860885 .5313005
24052492 -2.109568948156035 18 683 30 0 686 680 661 684 ?24 29 662 90 0 666 684
 659 .0838578003987439 .588516893350041 -2.044871309908655 18 666 34 0 687 663 6
76 662 ?24 17 687 0 688 689 690 666 691 692 0 693 +15 688 63 0 689 694 0 17 689
 0 688 685 687 661 693 695 0 0 -17 690 0 688 687 678 680 696 697 0 0 -17 691 0 6
98 699 700 680 687 692 0 690 -16 692 26 0 ?687 648 701 702 0 0 24 17 693 0 703 7
04 705 666 689 695 0 700 +15 703 44 0 674 639 0 17 704 0 703 674 693 668 700 642
 0 0 +17 705 0 703 693 674 661 706 707 0 708 +16 695 10 0 ?693 642 707 709 0 0 2
4 17 700 0 698 691 670 666 704 642 0 0 -15 698 60 0 699 710 0 17 670 0 698 700 6
99 668 669 671 0 704 +16 642 11 0 ?704 711 695 39 0 0 24 16 711 12 0 ?686 712 64
2 713 0 0 24 17 686 0 714 715 657 683 716 711 0 717 +16 712 13 0 ?715 718 711 71
9 0 0 24 30 713 106 0 711 720 643 0 +.1529183897139115 .510699475947508 -2.10956
8948156035 .566528822887065 .824041924199368 463455047313608e-31 30 720 105 0 71
8 721 713 0 -.1529183897139115 .510699475947508 -2.051096429587205 .566528822887
065 .824041924199368 0 30 643 107 0 707 713 39 0 +.1505275396410985 .51234318537
2567 -2.04809805135612 .566528822887065 .824041924199368 -931199273088342e-34 16
 707 9 0 ?705 695 0 643 0 0 24 16 718 14 0 ?722 723 712 720 0 0 24 30 721 104 0
 724 725 720 0 +.0682970877795722 .568876621027366 -2.05040912366757 .5665288228
87065 .824041924199368 563761673630598e-32 16 724 18 0 ?682 697 723 721 0 0 24 3
0 725 103 0 726 727 721 0 -.1491300475941036 .513303961154876 -2.11210838368387
 .566528822887065 .824041924199368 2810964920839405e-32 16 726 20 0 ?728 729 697
 725 0 0 24 30 727 84 0 723 649 725 0 +-.539051370172207 1.013126356647768 -1.57
731068069688 -.697533779578785 .479554473460415 .532422889563024 16 723 15 0 ?67
2 724 718 727 0 0 24 30 649 83 0 42 730 727 0 +.1653820238174275 .52882839827989
4 -2.048193490828365 -.8235964556726 .566222563274913 .03287684659330525 31 730
 82 0 729 731 649 0 -.162909898044829 .530527984748555 -2.051096429587205 -.5665
28822887065 -.824041924199368 693889390390723e-30 .824041924199368 -.56652882288
7065 0 .003 16 729 21 0 ?732 656 726 730 0 0 24 30 731 81 0 648 733 730 0 +.1653
820238174275 .528828398279894 -2.1 393108339551879e-30 571793948439098e-30 1 16
 648 27 0 ?653 42 692 731 0 0 24 31 733 80 0 656 734 731 0 -.162909898044829 .53
0527984748555 -2.109568948156035 -.566528822887065 -.824041924199368 69388939039
0723e-30 .824041924199368 -.566528822887065 0 .003 16 656 22 0 ?655 671 729 733
 0 0 24 30 734 79 0 24 735 733 736 +.0747276634509993 .594793862501616 -2.044506
8473011 .697533779578785 -.479554473460415 -.532422889563023 30 735 78 0 24 737
 734 738 +.1670816102860885 .531300524052492 -2.048193490828365 -.8235964556726
 .566222563274912 .03287684659330525 141 255 736 739 736 736 734 133 255 739 74
 0 697 702 719 0 +734 .0824603083517487 .58947766913235 -2.05040912366757 .16329
326816628 .53390500925986 -2.11210838368387 .01108569237380714 .1269696282935032
 16 697 19 0 ?696 726 724 739 0 0 24 31 702 73 0 692 740 739 0 +.083776524698958
5 .588572770393643 -2.047869688139735 .56652882288706 .824041924199371 -59396931
8174459e-29 -.824041924199371 .56652882288706 0 .003 133 719 75 0 712 739 709 0
 +737 .1670816102860885 .531300524052492 -2.109568948156035 .1670816102860885 .5
31300524052492 -2.051096429587205 -.00956894815603659 .0489035704127976 133 709
 76 0 695 719 737 0 +735 .1646907602132755 .532944233477551 -2.04809805135612 .0
838578003987439 .588516893350041 -2.044871309908655 .00290293875883733 .10104925
6968182 30 737 77 0 24 709 735 741 +.1670816102860885 .531300524052492 -2.1 0 0
 1 141 741 719 741 741 737 31 740 72 0 701 742 702 0 +.16460948451349 .533000110
521153 -2.109568948156035 .56652882288706 .824041924199371 -593969318174459e-29
 -.824041924199371 .56652882288706 0 .003 16 701 25 0 ?678 692 743 740 0 0 24 31
 742 71 0 743 744 740 0 +.16460948451349 .533000110521153 -2.051096429587205 .56
652882288706 .824041924199371 -593969318174459e-29 -.824041924199371 .5665288228
8706 0 .003 16 743 24 0 ?685 701 671 742 0 0 24 31 744 70 0 671 0 742 0 -.082076
9382302978 .586100644621046 -2.047869688139735 -.566528822887065 -.8240419241993
68 693889390390723e-30 .824041924199368 -.566528822887065 0 .003 16 671 23 0 ?67
0 743 656 744 0 0 24 17 685 0 688 745 689 679 708 743 0 715 +17 745 0 688 678 68
5 683 715 712 0 0 -17 708 0 746 706 747 661 685 743 0 689 -17 715 0 714 722 686
 679 745 712 0 747 +15 714 48 0 657 748 0 17 722 0 714 657 715 663 747 718 0 0 +
17 747 0 746 708 732 679 722 718 0 0 -15 746 54 0 706 749 0 17 732 0 746 747 706
 663 667 729 0 722 +17 706 0 746 732 708 665 705 707 0 0 -17 667 0 652 647 653 6
65 732 729 0 674 -15 652 67 0 653 750 0 17 653 0 652 667 650 663 657 648 0 732 +
17 674 0 703 705 704 665 647 42 0 706 -17 657 0 714 686 722 43 653 648 0 716 -17
 716 0 751 655 717 43 686 711 0 0 -15 751 57 0 716 752 0 17 655 0 751 753 716 64
4 650 656 0 728 +17 717 0 751 716 753 683 678 701 0 745 -17 753 0 751 717 655 67
6 728 726 0 0 -17 678 0 688 690 745 676 717 701 0 696 +17 696 0 754 728 682 676
 690 697 0 753 +15 754 51 0 672 755 0 17 728 0 754 672 696 644 753 726 0 0 +17 6
82 0 754 696 672 680 699 724 0 691 +17 672 0 754 682 728 658 654 723 0 699 +17 6
99 0 698 670 691 658 682 724 0 0 -17 654 0 652 650 669 644 672 723 0 655 -14 755
 49 756 ?749 748 754 37 757 -0 0 749 748 646 81 1 756 497 460 755 758 0 0 759 76
0 14 749 52 759 ?752 755 746 37 761 +0 0 752 755 646 14 748 45 762 ?755 639 714
 37 641 -0 0 755 639 646 50 757 100 0 755 763 641 0 +.0605644428788227 .57419281
4396632 -2.0445068473011 .4387387824033015 -.3016329129022695 .846478509277915 .
887829955249872 0 -.460171675096382 13 646 7 0 0 0 0 0 0 41 639 14 639 41 764 ?7
48 0 703 37 38 -0 0 748 0 646 81 1 764 500 460 639 765 0 762 766 767 81 1 765 46
9 501 639 0 764 0 768 769 81 1 762 499 460 748 768 0 759 764 770 81 1 766 501 46
0 752 771 0 764 772 773 82 1 767 617874056 14 752 55 766 ?710 749 751 37 774 +0
 0 710 749 646 81 1 771 473 501 752 0 766 775 776 777 81 1 772 502 460 710 776 0
 766 778 779 82 1 773 618660488 14 710 58 772 ?694 752 698 37 763 +0 0 694 752 6
46 81 1 776 474 501 710 0 772 771 780 781 81 1 778 503 460 694 780 0 772 782 783
 82 1 779 618922632 14 694 61 778 ?750 710 688 37 784 +0 0 750 710 646 81 1 780
 475 501 694 0 778 776 785 786 81 1 782 504 460 750 785 0 778 0 787 82 1 783 619
184776 14 750 64 782 ?0 694 652 37 788 +0 0 0 694 646 81 1 785 476 501 750 0 782
 780 0 789 82 1 787 619446920 83 3 789 .792156862745098 .819607843137255 .933333
333333333 50 788 69 0 750 784 761 0 +-.503952267579943 .988995723615587 -1.50959
2399954645 -.566528822887065 -.824041924199368 693889390390723e-30 .824041924199
368 -.566528822887065 0 50 784 68 0 694 0 788 0 +.2801850585619555 .453541903362
849 -2789069211431895e-30 .56652882288706 .824041924199371 -593969318174459e-29
 -.824041924199371 .56652882288706 0 51 761 97 0 749 788 774 0 +.150446263941313
5 .512399062416169 -2.051096429587205 .566528822887065 .824041924199368 0 .003 -
.824041924199368 .566528822887065 0 51 774 98 0 752 761 763 0 +.1504462639413135
 .512399062416169 -2.109568948156035 .566528822887065 .824041924199368 463455047
313608e-31 .003 -.824041924199368 .566528822887065 0 51 763 99 0 710 774 757 0 +
.0696133041267822 .567971722288659 -2.047869688139735 .566528822887065 .82404192
4199368 -343902088739356e-32 .003 -.824041924199368 .566528822887065 0 83 3 786
 .792156862745098 .819607843137255 .933333333333333 83 3 781 .792156862745098 .8
19607843137255 .933333333333333 81 1 775 472 501 749 0 759 758 771 790 83 3 777
 .792156862745098 .819607843137255 .933333333333333 81 1 759 498 460 749 775 0 7
56 762 791 81 1 758 471 501 755 0 756 768 775 792 83 3 790 .792156862745098 .819
607843137255 .933333333333333 81 1 768 470 501 748 0 762 765 758 793 83 3 792 .7
92156862745098 .819607843137255 .933333333333333 83 3 793 .792156862745098 .8196
07843137255 .933333333333333 82 1 791 617611912 82 1 770 617677448 83 3 769 .792
156862745098 .819607843137255 .933333333333333 50 641 101 0 748 757 38 0 +.15291
83897139115 .510699475947508 -2.1 -.824041924199368 .566528822887065 0 -.5665288
22887065 -.824041924199368 0 82 1 760 617480840 18 661 29 0 705 683 0 659 ?24 14
1 738 709 738 738 735 19 640 1 0 24 0 41 37 S0 74 20 638 4 0 0 782 637 785 34 0
 0 0 0 0 0 0 0 0 0 0 0 0 0 0 0 81 3 637 460 629 24 0 34 0 0 794 795 0 82 1 794 4
02526 82 1 795 807 81 1 22 1104 55 12 796 0 0 0 0 70 23 0 4 T12 0 0 4 20 1 797 7
97 13 25 99 0 12 0 798 0 0 799 0 50 26 94 0 800 801 0 0 +.105 .601 -2.045 1 0 23
12964634635745e-31 2312964634635745e-31 0 -1 30 27 98 0 802 803 0 0 +.105 .601 -
1.925 0 -1 0 29 28 147 0 31 804 0 .105 .531 -1.935 19 29 33 0 12 799 0 805 V0 16
 30 469 0 ?806 0 802 803 0 0 12 18 31 145 0 807 0 808 28 ?12 17 807 0 809 810 81
1 31 812 813 0 814 +18 808 68 0 806 31 815 804 ?12 17 806 0 816 817 818 808 819
 30 0 820 +18 815 69 0 821 808 822 823 ?12 29 804 77 0 808 823 28 .055 .531 -1.9
25 29 823 78 0 815 824 804 .105 .531 -1.925 29 824 280 0 822 825 823 .055 .531 -
1.935 18 822 221 0 810 815 826 824 ?12 29 825 282 0 826 827 824 .105 .576 -1.935
 18 826 225 0 828 822 829 825 ?12 29 827 426 0 829 830 825 .105 .576 -1.925 18 8
29 365 0 831 826 832 827 ?12 29 830 582 0 832 833 827 .055 .576 -1.935 18 832 52
6 0 834 829 835 830 ?12 29 833 583 0 835 0 830 .055 .576 -1.925 18 835 520 0 818
 832 0 833 ?12 17 818 0 816 806 836 835 831 837 0 838 +15 816 87 0 818 839 0 17
 836 0 816 818 817 829 821 802 0 0 -17 831 0 840 828 838 829 818 837 0 841 -16 8
37 341 0 ?818 842 843 844 0 0 12 17 838 0 840 831 845 835 834 846 0 819 -15 840
 231 0 838 798 847 17 845 0 840 838 828 832 811 842 0 848 +17 834 0 849 850 819
 832 838 846 0 845 +16 846 500 0 ?834 843 851 852 0 0 12 17 819 0 849 834 820 83
5 806 30 0 0 -15 849 164 0 819 853 0 17 820 0 849 819 850 808 854 855 0 856 -17
 850 0 849 820 834 822 848 857 0 854 -17 854 0 858 814 856 822 820 855 0 0 +16 8
55 54 0 ?854 802 859 860 0 0 12 17 856 0 858 854 861 808 817 859 0 0 +15 858 49
 0 854 862 0 17 861 0 858 856 814 815 863 864 0 817 +17 817 0 816 836 806 815 85
6 859 0 0 -16 859 58 0 ?856 855 864 865 0 0 12 16 864 146 0 ?861 859 857 866 0 0
 12 30 865 73 0 859 866 860 0 +.105 .531 -1.925 -1 0 0 30 866 74 0 864 867 865 0
 +.105 .531 -2.045 -2312964634635745e-31 0 1 30 860 72 0 855 865 803 0 +.055 .53
1 -2.045 173472347597681e-30 0 -1 30 803 97 0 30 860 27 0 +.055 .601 -1.925 0 -1
 0 30 867 271 0 857 868 866 0 +.055 .046 -1.935 0 1 0 16 857 190 0 ?848 864 869
 867 0 0 12 30 868 272 0 869 870 867 0 +0 .531 -1.935 -1 0 0 16 869 195 0 ?810 8
57 813 868 0 0 12 30 870 273 0 813 871 868 0 +.105 .046 -1.935 0 -1 0 16 813 200
 0 ?807 869 842 870 0 0 12 31 871 274 0 842 844 870 0 +.08 .576 -1.935 0 0 -1 -1
 0 0 .025 16 842 205 0 ?845 813 837 871 0 0 12 31 844 413 0 837 872 871 0 +.08 .
576 -1.925 0 0 1 1 0 0 .025 30 872 416 0 843 852 844 0 +.105 .576 -1.845 0 0 -1
 16 843 346 0 ?828 837 846 872 0 0 12 30 852 572 0 846 873 872 0 +.055 .576 -1.8
45 0 0 -1 31 873 691 0 851 874 852 0 +.08 .576 -2.035 0 0 -1 -1 0 0 .025 16 851
 654 0 ?875 846 876 873 0 0 12 31 874 692 0 877 878 873 0 +.08 .576 -2.045 0 0 -
1 -1 0 0 .01 16 877 663 0 ?879 876 0 874 0 0 12 31 878 693 0 876 0 874 0 +.08 .5
76 -2.035 0 0 -1 -1 0 0 .01 16 876 657 0 ?880 851 877 878 0 0 12 17 880 0 881 88
0 880 0 882 876 0 0 +15 881 682 0 880 883 884 17 882 0 885 882 882 0 880 876 0 0
 -15 885 673 0 882 886 887 14 886 671 888 ?883 889 885 25 890 +0 0 883 889 805 1
5 887 674 0 875 886 0 17 875 0 887 875 875 0 891 851 0 0 +17 891 0 847 891 891 0
 875 851 0 0 -15 847 640 0 891 798 0 14 798 643 892 ?839 0 840 25 893 +0 0 839 0
 805 81 1 892 1096 460 798 894 0 888 895 896 14 839 478 895 ?853 798 816 25 801
 +0 0 853 798 805 51 893 257 0 798 897 898 0 +.08 .576 -1.935 0 0 -1 .025 -1 0 0
 13 805 34 0 0 0 0 0 0 29 798 50 897 262 0 889 890 893 0 +0 .046 -1.935 0 0 -1 -
1 0 0 50 898 70 0 862 893 899 0 +0 .531 0 0 -1 0 0 0 -1 14 862 154 900 ?889 800
 858 25 898 +0 0 889 800 805 50 899 91 0 901 898 902 0 +.105 .601 -2.045 0 0 -1
 -1 0 0 14 901 651 903 ?0 883 904 25 899 +0 0 0 883 805 50 902 92 0 853 899 801
 0 +.055 .601 -2.045 -1 0 -173472347597681e-30 -173472347597681e-30 0 1 14 853 4
74 905 ?800 839 849 25 902 +0 0 800 839 805 50 801 93 0 839 902 26 0 +.105 .601
 -1.925 0 0 1 1 0 0 81 1 905 1100 460 853 906 0 903 907 908 14 800 183 907 ?862
 853 909 25 26 +0 0 862 853 805 81 1 907 1101 460 800 910 0 905 911 912 15 909 3
23 0 841 800 0 17 841 0 909 821 812 829 828 843 0 836 -17 821 0 909 863 841 815
 836 802 0 861 +17 812 0 909 841 863 826 807 813 0 0 -17 828 0 840 845 831 826 8
41 843 0 811 +17 811 0 809 807 848 826 845 842 0 812 -15 809 250 0 811 889 0 17
 848 0 809 811 810 832 850 857 0 0 +17 810 0 809 848 807 822 814 869 0 850 +17 8
14 0 858 861 854 31 810 869 0 863 -17 863 0 909 812 821 31 861 864 0 0 -14 889 2
47 911 ?886 862 809 25 897 +0 0 886 862 805 81 1 911 1102 460 889 913 0 907 914
 915 81 1 913 1069 501 889 0 911 916 917 918 81 1 914 1103 460 883 919 0 911 0 9
20 82 1 915 628949640 14 883 679 914 ?901 886 881 25 921 +0 0 901 886 805 81 1 9
19 1071 501 883 0 914 917 922 923 82 1 920 629408392 81 1 917 1070 501 886 0 888
 913 919 924 81 1 922 1072 501 901 0 903 919 0 925 83 3 923 .792156862745098 .81
9607843137255 .933333333333333 81 1 903 1099 460 901 922 0 900 905 926 83 3 925
 .792156862745098 .819607843137255 .933333333333333 81 1 900 1098 460 862 916 0
 895 903 927 82 1 926 627769992 81 1 916 1068 501 862 0 900 910 913 928 81 1 895
 1097 460 839 929 0 892 900 930 82 1 927 627638920 81 1 929 1065 501 839 0 895 8
94 906 931 82 1 930 627311240 81 1 894 1064 501 798 0 892 0 929 932 81 1 906 106
6 501 853 0 905 929 910 933 83 3 931 .792156862745098 .819607843137255 .93333333
3333333 81 1 910 1067 501 800 0 907 906 916 934 83 3 933 .792156862745098 .81960
7843137255 .933333333333333 83 3 934 .792156862745098 .819607843137255 .93333333
3333333 83 3 932 .792156862745098 .819607843137255 .933333333333333 83 3 928 .79
2156862745098 .819607843137255 .933333333333333 81 1 888 1095 460 886 917 0 0 89
2 935 83 3 924 .792156862745098 .819607843137255 .933333333333333 82 1 935 62685
2488 51 921 689 0 883 0 890 0 +.08 .576 -2.035 0 0 -1 .01 -1 0 0 50 890 688 0 88
6 921 897 0 +.08 .576 -2.035 0 0 -1 -1 0 0 83 3 918 .792156862745098 .8196078431
37255 .933333333333333 16 802 311 0 ?821 30 855 27 0 0 12 82 1 912 628097672 82
 1 908 627901064 15 904 648 0 879 901 0 17 879 0 904 879 879 0 936 877 0 0 +17 9
36 0 884 936 936 0 879 877 0 0 -15 884 683 0 936 883 0 82 1 896 627180168 19 799
 100 0 12 0 29 25 S0 74 20 797 4 0 0 914 796 922 22 0 0 0 0 0 0 0 0 0 0 0 0 0 0
 0 0 81 3 796 1054 629 12 0 22 0 0 937 938 939 82 1 937 402707 82 1 938 808 82 2
 939 402786 402820 81 1 10 1206 55 7 940 0 0 0 0 70 11 0 4 T7 0 0 4 20 1 941 941
 13 13 803 0 7 0 942 0 0 943 0 51 14 503 0 944 945 0 0 +.0696133041267822 .56797
1722288659 -2.047869688139735 .566528822887065 .824041924199368 -343902088739356
e-32 .003 -.824041924199368 .566528822887065 0 31 15 546 0 18 946 0 0 -.07131289
05954435 .570443848061258 -2.047869688139735 -.566528822887065 -.824041924199368
 693889390390723e-30 .824041924199368 -.566528822887065 0 .003 29 16 540 0 19 94
7 0 .0699966742482334 .571348746799964 -2.05040912366757 19 17 805 0 7 943 0 948
 V0 16 18 544 0 ?949 0 950 15 0 0 7 18 19 538 0 951 0 952 16 ?7 17 951 0 953 949
 954 19 955 956 0 957 +18 952 406 0 958 19 959 947 ?7 17 958 0 960 961 955 952 9
62 950 0 963 +18 959 402 0 964 952 965 966 ?7 29 947 409 0 952 966 16 .149130047
5941034 .513303961154876 -2.11210838368387 29 966 405 0 959 967 947 .06829708777
95721 .568876621027366 -2.05040912366757 29 967 389 0 965 968 966 .1529183897139
115 .510699475947508 -2.051096429587205 18 965 386 0 969 959 970 967 ?7 29 968 3
85 0 970 971 967 .1529183897139115 .510699475947508 -2.109568948156035 18 970 38
2 0 972 965 973 968 ?7 29 971 338 0 973 974 968 .0696945798265673 .5679158452450
57 -2.044871309908655 18 973 335 0 975 970 976 971 ?7 29 974 334 0 976 977 971 .
1505275396410985 .512343185372567 -2.04809805135612 18 976 331 0 978 973 979 974
 ?7 29 977 781 0 979 980 974 .154617976182573 .513171601720106 -2.10956894815603
5 18 979 693 0 981 976 982 977 ?7 29 980 782 0 982 983 977 .154617976182573 .513
171601720106 -2.051096429587205 18 982 694 0 984 979 985 980 ?7 29 983 783 0 985
 986 980 .1522271261097675 .51481531114516 -2.04809805135612 18 985 695 0 987 98
2 988 983 ?7 29 986 784 0 988 989 983 .0713941662952285 .570387971017655 -2.0448
71309908655 18 988 696 0 949 985 990 986 ?7 29 989 786 0 990 0 986 .150829634062
7655 .515776086927474 -2.11210838368387 18 990 688 0 954 988 0 989 ?7 17 954 0 9
53 951 981 990 991 992 0 955 +15 953 731 0 954 993 0 17 981 0 953 954 984 979 99
4 995 0 991 -17 991 0 996 997 962 979 954 992 0 998 -16 992 634 0 ?954 999 995 1
000 0 0 7 17 955 0 960 958 1001 990 951 956 0 962 -15 960 89 0 1001 1002 0 17 10
01 0 960 955 961 19 1003 1004 0 0 +16 956 642 0 ?951 1005 0 1006 0 0 7 17 962 0
 996 991 1007 990 958 950 0 0 -15 996 567 0 991 1008 0 17 1007 0 996 962 997 952
 972 1009 0 0 -16 950 558 0 ?958 18 1004 946 0 0 7 16 1004 425 0 ?1001 950 1010
 1011 0 0 7 30 946 432 0 950 1011 15 0 -.1491300475941036 .513303961154876 -2.11
210838368387 .566528822887065 .824041924199368 2810964920839405e-32 30 1011 427
 0 1004 1012 946 0 +.0682970877795722 .568876621027366 -2.05040912366757 .566528
822887065 .824041924199368 563761673630598e-32 31 1012 422 0 1010 1013 1011 0 -.
1504462639413135 .512399062416169 -2.051096429587205 .56652882288706 .8240419241
99371 -593969318174459e-29 -.824041924199371 .56652882288706 0 .003 16 1010 420
 0 ?978 1004 1009 1012 0 0 7 31 1013 417 0 1009 1014 1012 0 -.1504462639413135 .
512399062416169 -2.109568948156035 .56652882288706 .824041924199371 -59396931817
4459e-29 -.824041924199371 .56652882288706 0 .003 16 1009 415 0 ?972 1010 1015 1
013 0 0 7 31 1014 412 0 1015 1016 1013 0 -.0696133041267819 .567971722288659 -2.
047869688139735 .56652882288706 .824041924199371 -593969318174459e-29 -.82404192
4199371 .56652882288706 0 .003 16 1015 410 0 ?964 1009 1017 1014 0 0 7 133 1016
 404 0 1018 1019 1014 0 +1020 .0682970877795721 .568876621027366 -2.050409123667
57 .1491300475941034 .513303961154876 -2.11210838368387 .01108569237380714 .1269
696282935032 16 1018 403 0 ?963 1021 1022 1016 0 0 7 30 1019 398 0 1017 1023 101
6 0 -.1529183897139115 .510699475947508 -2.051096429587205 .566528822887065 .824
041924199368 0 30 1020 151 0 7 1000 1024 1025 +.0605644428788227 .57419281439663
2 -2.0445068473011 .697533779578785 -.479554473460415 -.532422889563023 31 1000
 759 0 992 1026 1020 0 -.152145850409975 .514871188188767 -2.109568948156035 -.5
66528822887065 -.824041924199368 693889390390723e-30 .824041924199368 -.56652882
2887065 0 .003 30 1024 162 0 7 1020 1027 1028 +.1529183897139115 .51069947594750
8 -2.048193490828365 -.8235964556726 .566222563274912 .03287684659330525 141 102
5 1016 1025 1025 1020 30 1027 241 0 7 1024 1029 1030 +.1529183897139115 .5106994
75947508 -2.1 0 0 1 141 1028 1029 1028 1028 1024 133 1029 333 0 999 1027 1031 0
 +1024 .1505275396410985 .512343185372567 -2.04809805135612 .0696945798265673 .5
67915845245057 -2.044871309908655 .00290293875883733 .101049256968182 16 999 332
 0 ?1032 1022 992 1029 0 0 7 30 1031 341 0 1021 1029 1033 0 -.0696945798265672 .
567915845245057 -2.044871309908655 .566528822887065 .824041924199368 -1828777630
087675e-33 16 1021 536 0 ?975 1034 1018 1031 0 0 7 30 1033 347 0 1034 1031 1035
 0 +.1505275396410985 .512343185372567 -2.04809805135612 .566528822887065 .82404
1924199368 -931199273088342e-34 16 1034 345 0 ?1036 1037 1021 1033 0 0 7 133 103
5 384 0 1022 1033 1023 0 +1027 .1529183897139115 .510699475947508 -2.10956894815
6035 .1529183897139115 .510699475947508 -2.051096429587205 -.00956894815603659 .
0489035704127976 16 1022 383 0 ?1038 1018 999 1035 0 0 7 30 1023 392 0 1037 1035
 1019 0 +.1529183897139115 .510699475947508 -2.109568948156035 .566528822887065
 .824041924199368 463455047313608e-31 16 1037 390 0 ?998 1017 1034 1023 0 0 7 17
 998 0 1039 994 1040 979 997 1037 0 0 +16 1017 578 0 ?969 1015 1037 1019 0 0 7 1
7 969 0 1039 1040 994 965 1041 1017 0 1038 +15 1039 85 0 998 1042 0 17 1040 0 10
39 998 969 970 1038 1022 0 997 -17 994 0 1039 969 998 982 981 995 0 1041 +17 104
1 0 1043 1044 1045 982 969 1017 0 0 -17 1038 0 1046 978 972 965 1040 1022 0 1045
 +15 1046 113 0 1038 942 0 17 978 0 1046 1032 1038 976 1045 1010 0 1047 +17 972
 0 1046 1038 963 970 1007 1009 0 1040 +17 1045 0 1043 1041 1048 965 978 1010 0 0
 -15 1043 587 0 1044 1049 0 17 1048 0 1043 1045 1044 976 1036 1034 0 0 -17 1044
 0 1043 1048 1041 985 984 1050 0 1036 -17 1036 0 1051 1052 1047 985 1048 1034 0
 0 +15 1051 83 0 1036 1053 0 17 1052 0 1051 975 1036 988 987 1005 0 1054 +17 104
7 0 1051 1036 975 976 1032 999 0 1048 -17 975 0 1051 1047 1052 973 1054 1021 0 1
032 +17 1032 0 1046 964 978 973 1047 999 0 1055 +17 964 0 1046 963 1032 959 1055
 1015 0 961 +17 1055 0 1056 1054 1003 973 964 1015 0 0 -15 1056 545 0 957 944 0
 17 1054 0 1056 957 1055 988 975 1021 0 0 -17 1003 0 1056 1055 957 959 1001 1004
 0 0 -17 957 0 1056 1003 1054 19 949 18 0 1001 -17 949 0 953 987 951 988 957 18
 0 1052 +17 987 0 953 984 949 985 1052 1005 0 1044 -17 984 0 953 981 987 982 104
4 1050 0 994 +16 1005 661 0 ?1052 1050 956 1057 0 0 7 16 1050 640 0 ?984 995 100
5 1058 0 0 7 30 1057 762 0 1005 1006 1058 0 +.154617976182573 .513171601720106 -
2.048193490828365 -.8235964556726 .566222563274913 .03287684659330525 30 1006 77
0 0 956 0 1057 0 +-.549815417807061 .99746956008798 -1.57731068069688 -.69753377
9578785 .479554473460415 .532422889563024 31 1058 761 0 1050 1057 1026 0 -.15214
5850409975 .514871188188767 -2.051096429587205 -.566528822887065 -.8240419241993
68 693889390390723e-30 .824041924199368 -.566528822887065 0 .003 30 1026 760 0 9
95 1058 1000 0 +.154617976182573 .513171601720106 -2.1 393108339551879e-30 57179
3948439098e-30 1 16 995 660 0 ?994 992 1050 1026 0 0 7 14 944 491 1059 ?1002 100
8 1056 13 14 +0 0 1002 1008 948 81 1 1059 1198 460 944 1060 0 0 1061 1062 14 100
2 90 1061 ?1042 944 960 13 1063 -0 0 1042 944 948 14 1008 470 1064 ?944 1049 996
 13 945 +0 0 944 1049 948 13 948 804 0 0 0 0 0 0 17 942 14 942 109 1065 ?1049 0
 1046 13 1066 -0 0 1049 0 948 81 1 1065 1201 460 942 1067 0 1064 1068 1069 14 10
49 449 1068 ?1008 942 1043 13 1070 +0 0 1008 942 948 50 1066 136 0 942 1063 1070
 0 +.2660218379897785 .432940855257865 -2789069211431895e-30 .56652882288706 .82
4041924199371 -593969318174459e-29 -.824041924199371 .56652882288706 0 50 1063 9
6 0 1002 1071 1066 0 +.0605644428788227 .574192814396632 -2.0445068473011 .43873
87824033015 -.3016329129022695 .846478509277915 .887829955249872 0 -.46017167509
6382 51 1070 461 0 1049 1066 945 0 +.1504462639413135 .512399062416169 -2.051096
429587205 .566528822887065 .824041924199368 0 .003 -.824041924199368 .5665288228
87065 0 51 945 482 0 1008 1070 14 0 +.1504462639413135 .512399062416169 -2.10956
8948156035 .566528822887065 .824041924199368 463455047313608e-31 .003 -.82404192
4199368 .566528822887065 0 50 1071 94 0 1042 1072 1063 0 +.1529183897139115 .510
699475947508 -2.1 -.824041924199368 .566528822887065 0 -.566528822887065 -.82404
1924199368 0 14 1042 86 1073 ?1053 1002 1039 13 1071 -0 0 1053 1002 948 50 1072
 93 0 1053 1074 1071 0 +.1529183897139115 .510699475947508 -2.048193490828365 -.
0270918999283547 .01862568120074385 -.999459410360461 -.999632819711122 0 .02709
66004581872 14 1053 84 1075 ?993 1042 1051 13 1072 -0 0 993 1042 948 50 1074 751
 0 993 0 1072 0 +-.514716315214797 .973338927055798 -1.509592399954645 -.5665288
22887065 -.824041924199368 693889390390723e-30 .824041924199368 -.56652882288706
5 0 14 993 728 1076 ?0 1053 953 13 1074 -0 0 0 1053 948 81 1 1076 1205 460 993 1
077 0 1075 0 1078 81 1 1077 1177 501 993 0 1076 1079 0 1080 81 1 1075 1204 460 1
053 1079 0 1073 1076 1081 82 1 1078 641401480 81 1 1079 1176 501 1053 0 1075 108
2 1077 1083 81 1 1073 1203 460 1042 1082 0 1068 1075 1084 82 1 1081 641270408 81
 1 1082 1175 501 1042 0 1073 1085 1079 1086 81 1 1068 1202 460 1049 1087 0 1065
 1073 1088 82 1 1084 641139336 81 1 1087 1171 501 1049 0 1068 1067 1089 1090 82
 1 1088 640746120 81 1 1067 1170 501 942 0 1065 0 1087 1091 81 1 1089 1172 501 1
008 0 1064 1087 1060 1092 83 3 1090 .792156862745098 .819607843137255 .933333333
333333 81 1 1064 1200 460 1008 1089 0 1061 1065 1093 81 1 1060 1173 501 944 0 10
59 1089 1085 1094 83 3 1092 .792156862745098 .819607843137255 .933333333333333 8
1 1 1085 1174 501 1002 0 1061 1060 1082 1095 83 3 1094 .792156862745098 .8196078
43137255 .933333333333333 81 1 1061 1199 460 1002 1085 0 1059 1064 1096 83 3 109
5 .792156862745098 .819607843137255 .933333333333333 82 1 1096 640418440 82 1 10
93 640483976 83 3 1091 .792156862745098 .819607843137255 .933333333333333 83 3 1
086 .792156862745098 .819607843137255 .933333333333333 83 3 1083 .79215686274509
8 .819607843137255 .933333333333333 83 3 1080 .792156862745098 .819607843137255
 .933333333333333 82 1 1069 640615048 82 1 1062 640287368 17 963 0 1046 972 964
 952 961 1018 0 1007 +17 961 0 960 1001 958 959 963 1018 0 1003 -17 997 0 996 10
07 991 970 998 1037 0 0 -141 1030 1035 1030 1030 1027 19 943 1 0 7 0 17 13 S0 74
 20 941 4 0 0 1076 940 1077 10 0 0 0 0 0 0 0 0 0 0 0 0 0 0 0 0 81 3 940 1161 629
 7 0 10 0 0 1097 1098 0 82 1 1097 402876 82 1 1098 809 74 20 6 1 0 0 2 0 0 0 0 0
 0 0 0 0 0 0 0 0 0 0 0 0 0 0 80 2 5 1099 1100 9000 0 0 0 0 3 5 0 0 0 TFFFFFFFFFF
FFF9 1 79 18 1100 MULTI_BODY_ID_20011 0 
