**ABCDEFGHIJKLMNOPQRSTUVWXYZabcdefghijklmnopqrstuvwxyz**************************
**PARASOLID !"#$%&'()*+,-./:;<=>?@[\]^_`{|}~0123456789**************************
**PART1;
MC=AMD64;
MC_MODEL=Intel64 Family 6 Model 165 Stepping 2, GenuineIntel;
MC_ID=unknown;
OS=Windows_NT;
OS_RELEASE=unknown;
FRU=Parasolid Version 33.1, build 255,  1- 8-2022;
APPL=SOLIDWORKS 2022-2022076;
SITE=;
USER=unknown;
FORMAT=text;
GUISE=transmit;
KEY=FILERollhoop.x_t;
DATE=Thu Jun  8 17:33:01 2023;
**PART2;
SCH=SCH_3301255_33103;
USFLD_SIZE=0;
**PART3;
**END_OF_HEADER*****************************************************************
T51 : TRANSMIT FILE created by modeller version 330125523 SCH_3301255_33103_1300
6230 0 12 35 CCCI7 lattice222 0 CCCI4 mesh1006 0 I8 polyline1008 0 CCCCCCCDI5 ow
ner1040 0 CCCCCCI13 boundary_mesh1006 0 I17 boundary_polyline1008 0 CCCA16 index
_map_offset0 0 1 dA9 index_map82 0 A17 node_id_index_map82 0 A20 schema_embeddin
g_map82 0 A5 child12 0 A14 lowest_node_id0 0 1 dA16 mesh_offset_data206 0 Z1 368
 2 3 0 0 0 0 0 0 0 1e3 1e-8 0 4 0 1 0 1 1 5 6 7 8 0 0 9 10 11 0 0 0 0 0 0 0 81 2
55 2 2 357 12 1 13 0 0 0 0 14 70 11 CI9 list_type0 0 1 uI10 notransmit0 0 1 lCCC
DCCDI12 finger_index0 0 1 dI12 finger_block1012 0 CZ3 0 4 T1 0 0 10 20 1 15 15 1
3 255 5 9 0 1 0 16 0 0 17 0 50 255 6 100 0 16 18 0 0 +-.1816566413346095 .533707
279968897 -1.886737003978515 0 .999797870549272 .020105174586187 0 -.02010517458
6187 .999797870549272 32 255 7 103 0 19 20 0 0 --.2112437868050735 .528484962844
971 -1.62703960530874 0 -.999797870549272 -.020105174586187 .995275700555229 .00
195199191283764 -.0970694061580191 .0112334689307794 .011 29 255 8 98 0 11 21 0
 .1108301107210838 .964249895327186 -1.623409176402825 19 8 CCCCCCCA5 owner12 0
 Z9 1 0 1 17 0 22 V0 16 255 10 60 0 ?23 0 24 25 0 0 1 18 255 11 78 0 26 0 27 8 ?
1 17 255 26 0 28 29 29 11 30 31 0 32 +18 27 79 0 30 11 33 21 ?1 17 30 0 34 32 32
 27 26 31 0 29 -18 33 80 0 35 27 36 37 ?1 29 21 97 0 27 37 8 .131169889278915 .9
68441953539402 -1.630670034214665 29 37 96 0 33 38 21 -.1108301107210838 .964249
895327186 -1.623409176402825 29 38 95 0 36 0 37 -.131169889278915 .9684419535394
02 -1.630670034214665 18 36 81 0 39 33 0 38 ?1 17 39 0 40 35 35 36 41 42 0 43 -1
5 255 40 56 0 39 44 45 17 35 0 40 39 39 33 43 46 0 41 -17 41 0 47 43 43 33 39 42
 0 0 +16 42 72 0 ?41 46 48 49 0 0 1 17 43 0 47 41 41 36 35 46 0 0 +15 47 50 0 43
 50 51 16 46 70 0 ?43 19 42 52 0 0 1 16 19 68 0 ?53 54 46 7 0 0 1 32 52 88 0 46
 49 55 0 +-.121 .966345924433294 -1.62703960530874 .1049925377646138 .9598661985
71525 .260064314840765 .3663480333162075 .205787031210969 -.907436397920385 .011
44282985299376 .011 32 49 87 0 42 56 52 0 --.121 .966345924433294 -1.62703960530
874 .3663480333162075 .205787031210969 -.907436397920385 .1049925377646138 .9598
66198571525 .260064314840765 .03992720150849735 .011 31 255 55 90 0 54 52 57 0 +
-.1077356098582764 1.030704467308748 -1.62703960530874 -.2018587937158935 -.9794
1463507524 -632467785603036e-29 -1276691842659894e-30 -619448205433242e-29 1 .01
1 16 54 66 0 ?58 31 19 55 0 0 1 32 57 91 0 31 55 59 0 -.121 .966345924433294 -1.
62703960530874 .3663480333162075 -.205787031210969 .907436397920385 -.1049925377
646138 .959866198571525 .260064314840765 .03992720150849735 .011 16 31 64 0 ?26
 24 54 57 0 0 1 32 59 92 0 24 57 25 0 +.121 .966345924433294 -1.62703960530874 .
1049925377646138 -.959866198571525 -.260064314840765 -.3663480333162075 .2057870
31210969 -.907436397920385 .01144282985299376 .011 16 24 62 0 ?29 10 31 59 0 0 1
 31 25 93 0 10 59 60 0 +.1077356098582764 1.030704467308748 -1.62703960530874 -.
2018587937158935 .97941463507524 632467785603036e-29 1276691842659894e-30 -61944
8205433242e-29 1 .011 32 60 101 0 61 25 20 0 -.2112437868050735 .528484962844971
 -1.62703960530874 0 .999797870549272 .020105174586187 -.995275700555229 .001951
99191283764 -.0970694061580191 .0112334689307794 .011 16 61 76 0 ?62 48 63 60 0
 0 1 32 20 102 0 48 60 7 0 +-.121 .533510217731507 -1.876937417087895 0 -.999797
870549272 -.020105174586187 0 .020105174586187 -.999797870549272 .01255846906611
95 .011 16 48 74 0 ?64 42 61 20 0 0 1 17 64 0 65 64 64 0 66 48 0 0 +15 65 19 0 6
4 67 0 17 66 0 45 66 66 0 64 48 0 0 -15 45 57 0 66 44 0 14 255 44 53 68 ?69 50 4
0 5 70 +0 0 69 50 22 81 1 68 358 71 44 72 0 0 73 74 14 69 256 73 ?75 44 76 5 77
 -0 0 75 44 22 14 50 47 78 ?44 79 47 5 80 -0 0 44 79 22 51 255 70 84 0 44 80 81
 0 +-.121 .966345924433293 -1.62703960530874 0 -.866025403784442 -.5 .011 0 .5 -
.866025403784442 13 22 7 0 0 0 0 0 0 9 16 14 16 10 82 ?67 0 83 5 6 -67 67 67 0 2
2 81 1 82 361 71 16 84 0 78 85 86 14 67 15 85 ?87 16 65 5 6 -16 16 87 16 22 15 8
3 14 0 88 16 0 17 88 0 83 88 88 0 53 19 0 0 -17 53 0 89 53 53 0 88 19 0 0 +15 89
 52 0 53 50 0 81 1 85 362 71 67 90 0 82 91 92 14 87 30 91 ?93 67 94 5 95 -0 0 93
 67 22 81 1 91 363 71 87 96 0 85 97 98 14 93 36 97 ?79 87 34 5 81 -0 0 79 87 22
 15 94 34 0 99 87 100 54 255 95 82 0 87 77 80 0 -0 1.0085 -1.62703960530874 0 0
 -1 .11 .011 -1 0 0 67 255 77 269 0 69 101 95 0 +56 0 .999797870549272 .02010517
4586187 .01077138333186326 51 80 83 0 50 95 70 0 --.22 .486 -1.62703960530874 .2
018587937158905 .97941463507524 0 .011 -.97941463507524 .2018587937158905 0 50 1
01 271 0 75 102 77 0 +.2112437868050735 .518486984139478 -1.627240657054605 0 -.
999797870549272 -.020105174586187 0 .020105174586187 -.999797870549272 32 56 273
 0 63 103 49 104 +.2112437868050735 .518486984139478 -1.627240657054605 0 -.9997
97870549272 -.020105174586187 -.995275700555229 .001951991912837715 -.0970694061
580229 .0112334689307794 .011 16 63 253 0 ?105 61 106 56 0 0 1 32 103 299 0 107
 108 56 0 +.121 .533510217731507 -1.8769374170879 0 -.999797870549272 -.02010517
4586187 0 .020105174586187 -.999797870549272 .01255846906611956 .011 141 255 104
 77 104 104 56 16 107 277 0 ?109 106 0 103 0 0 1 32 108 300 0 106 0 103 110 +.12
1 .523512239026014 -1.87713846883376 0 -.999797870549272 -.020105174586187 0 .02
0105174586187 -.999797870549272 .01255846906611956 .011 16 106 280 0 ?111 63 107
 108 0 0 1 141 110 102 110 110 108 67 102 296 0 112 113 101 0 +108 0 .9997978705
49272 .020105174586187 .0096349323602218 14 112 283 114 ?115 75 116 5 102 -0 0 1
15 75 22 50 113 298 0 115 0 102 0 +.121 .523512239026014 -1.87713846883376 0 -.9
99797870549272 -.020105174586187 0 .020105174586187 -.999797870549272 14 115 288
 117 ?0 112 118 5 113 +0 0 0 112 22 81 1 117 366 71 115 119 0 114 120 121 15 118
 290 0 111 115 0 17 111 0 118 111 111 0 122 106 0 0 +17 122 0 116 122 122 0 111
 106 0 0 -15 116 286 0 122 112 123 15 123 287 0 109 112 0 17 109 0 123 109 109 0
 124 107 0 0 +17 124 0 125 124 124 0 109 107 0 0 -15 125 46 0 124 79 0 14 79 42
 120 ?50 93 28 5 18 +0 0 50 93 22 81 1 120 367 71 79 126 0 117 127 128 15 28 45
 0 26 79 125 51 18 86 0 79 81 6 0 +.121 .966345924433293 -1.62703960530874 0 -.8
66025403784442 -.5 .011 0 .5 -.866025403784442 51 81 85 0 93 70 18 0 -.22 .486 -
1.62703960530874 -.2018587937158905 .97941463507524 0 .011 .97941463507524 .2018
587937158905 0 80 255 1 71 129 130 9000 1 1 1 1 1 1 1 1 0 FFFFTFTFFFFFFF1 81 1 1
26 323 131 79 0 120 132 133 134 81 1 127 368 71 75 135 0 120 0 136 82 255 1 128
 -963968825 14 75 261 127 ?112 69 137 5 101 +0 0 112 69 22 81 1 135 327 131 75 0
 127 138 139 140 82 1 136 1845756112 80 1 131 0 141 8001 0 0 0 0 3 5 0 0 0 FFFFT
FTFFFFFFF2 81 1 138 326 131 69 0 73 72 135 142 81 1 139 328 131 112 0 114 135 11
9 143 83 255 3 140 .792156862745098 .819607843137255 .933333333333333 81 1 114 3
65 71 112 139 0 97 117 144 81 1 119 329 131 115 0 117 139 0 145 83 3 143 .792156
862745098 .819607843137255 .933333333333333 83 3 145 .792156862745098 .819607843
137255 .933333333333333 81 1 97 364 71 93 132 0 91 114 146 82 1 144 1851850960 8
1 1 132 322 131 93 0 97 96 126 147 82 1 146 -963837753 81 1 96 321 131 87 0 91 9
0 132 148 83 3 147 .792156862745098 .819607843137255 .933333333333333 81 1 90 32
0 131 67 0 85 84 96 149 83 3 148 .792156862745098 .819607843137255 .933333333333
333 81 1 84 319 131 16 0 82 0 90 150 83 3 149 .792156862745098 .819607843137255
 .933333333333333 83 3 150 .792156862745098 .819607843137255 .933333333333333 81
 1 73 359 71 69 138 0 68 78 151 81 1 72 325 131 44 0 68 133 138 152 83 3 142 .79
2156862745098 .819607843137255 .933333333333333 81 1 133 324 131 50 0 78 126 72
 153 83 3 152 .792156862745098 .819607843137255 .933333333333333 81 1 78 360 71
 50 133 0 73 82 154 83 3 153 .792156862745098 .819607843137255 .933333333333333
 82 1 154 -964951865 82 1 151 1847722192 79 255 15 141 SDL/TYSA_COLOUR15 137 263
 0 105 75 0 17 105 0 137 105 105 0 155 63 0 0 +17 155 0 76 155 155 0 105 63 0 0
 -15 76 259 0 155 69 156 15 156 260 0 62 69 0 17 62 0 156 62 62 0 157 61 0 0 +17
 157 0 158 157 157 0 62 61 0 0 -15 158 41 0 157 93 0 83 3 134 .792156862745098 .
819607843137255 .933333333333333 79 14 130 SWEntUnchanged82 1 121 1849884880 17
 99 0 94 99 99 0 58 54 0 0 -15 100 35 0 23 87 0 17 23 0 100 23 23 0 159 10 0 0 +
17 159 0 160 159 159 0 23 10 0 0 -15 160 40 0 159 93 158 17 58 0 51 58 58 0 99 5
4 0 0 +15 51 51 0 58 50 89 15 34 39 0 32 93 160 17 32 0 34 30 30 11 29 24 0 0 -1
7 29 0 28 26 26 27 32 24 0 0 +82 1 98 -964362041 82 1 92 -964624185 82 1 86 -964
755257 82 1 74 -965082937 19 17 8 0 1 0 9 5 S0 74 4 CI16 index_map_offset0 0 1 d
CCZ20 15 10 0 0 161 127 162 163 164 165 166 119 13 2 0 0 0 0 0 0 0 0 0 0 81 5 16
1 6 167 1 0 162 0 0 168 0 0 0 0 81 2 162 301 169 1 161 163 0 0 0 170 81 2 163 30
7 171 1 162 164 0 0 0 172 81 1 164 312 173 1 163 165 0 0 174 81 2 165 313 175 1
 164 166 0 0 0 0 81 2 166 318 176 1 165 13 0 0 0 177 81 2 13 356 178 1 166 2 0 0
 179 0 80 2 178 180 181 8004 0 0 0 0 3 5 0 0 0 FFTFFFFFFFFFFF2 3 83 1 179 1e3 79
 16 181 SDL/TYSA_DENSITY80 2 176 182 183 9000 0 0 0 0 3 5 0 0 0 FFTFFFFFFFFFFF9
 1 82 1 177 1 79 24 183 BODY_IN_LIGHTWEIGHT_PERM80 2 175 184 185 9000 0 0 0 0 3
 5 0 0 0 FFTFFFFFFFFFFF9 1 79 16 185 BODY_RECIPE_200180 1 173 186 187 9000 1 1 1
 1 1 1 1 1 0 FFTFFFFFFFFFFF1 82 1 174 538 79 10 187 BODY_MATCH80 2 171 188 189 9
000 0 0 0 0 3 5 0 0 0 FFTFFFFFFFFFFF9 1 82 1 172 69 79 30 189 LAST_BODY_MODIFYIN
G_FEATURE_ID80 2 169 190 191 9000 0 0 0 0 3 5 0 0 0 FFTFFFFFFFFFFT9 1 82 1 170 1
68 79 19 191 ENT_TIME_STAMP_200180 5 167 192 193 9000 0 0 0 0 3 6 0 0 0 FFTTTTTT
FTTFTT2 2 2 2 2 83 1 168 1 79 19 193 BODY_SCALING_FACTOR80 2 12 194 195 9000 0 0
 0 0 3 5 0 0 0 FFTFFFFFFFFFFF9 1 82 1 14 106 79 12 195 ATOM_ID_20011 0 
